<?xml version="1.0" encoding="utf-8"?>
<!-- Generator: Adobe Illustrator 23.0.3, SVG Export Plug-In . SVG Version: 6.00 Build 0)  -->
<svg version="1.1" id="Layer_1" xmlns="http://www.w3.org/2000/svg" xmlns:xlink="http://www.w3.org/1999/xlink" x="0px" y="0px"
	 viewBox="0 0 250 100" enable-background="new 0 0 250 100" xml:space="preserve">
<path fill="#B1CD46" d="M-260.365-160.131c20.486-12.745,40.882-25.638,61.505-38.157c7.615-4.623,16.024-1.972,21.072,6.014
	c12.482,19.745,20.082,41.283,22.423,64.501c3.314,32.879-4.022,63.479-20.818,91.858c-6.272,10.598-15.254,12.795-25.721,6.321
	c-19.532-12.079-39.04-24.199-58.558-36.301c1.985-2.693,3.97-5.387,5.954-8.08c19.119,11.828,38.216,23.691,57.369,35.464
	c6.552,4.027,8.895,3.289,12.805-3.422c13.665-23.454,20.497-48.657,19.543-75.878c-0.866-24.722-8.306-47.404-21.097-68.449
	c-2.249-3.701-5-5.217-9.088-2.68c-19.81,12.294-39.638,24.561-59.459,36.837C-256.412-154.778-258.388-157.454-260.365-160.131z"/>
<path fill="#235DA3" d="M-254.508-73.974c-1.985,2.693-3.969,5.386-5.954,8.08c-18.88-11.518-37.93-22.768-56.568-34.665
	c-9.685-6.182-8.783-19.32,1.339-25.751c12.074-7.67,24.315-15.079,36.515-22.548c6.234-3.817,12.538-7.519,18.811-11.273
	c1.976,2.676,3.953,5.352,5.929,8.029c3.232,6.349,6.544,12.654,8.299,19.636C-240.945-111.818-243.933-92.357-254.508-73.974z
	 M-253.598-112.904c0.027-10.878-2.612-21.066-7.763-30.65c-1.24-2.308-2.281-3.176-4.911-1.524
	c-14.521,9.12-29.182,18.016-43.723,27.104c-4.798,2.998-4.748,7.091,0.123,10.125c14.412,8.979,28.957,17.747,43.325,26.796
	c2.913,1.835,3.937,0.745,5.235-1.679C-256.261-92.169-253.643-102.198-253.598-112.904z"/>
<path fill="#010202" d="M-516.342-160.131c20.486-12.745,40.882-25.638,61.505-38.157c7.615-4.623,16.024-1.972,21.072,6.014
	c12.482,19.745,20.082,41.283,22.423,64.501c3.314,32.879-4.022,63.479-20.818,91.858c-6.272,10.598-15.254,12.795-25.721,6.321
	c-19.532-12.079-39.04-24.199-58.558-36.301c1.985-2.693,3.97-5.387,5.954-8.08c19.119,11.828,38.216,23.691,57.369,35.464
	c6.552,4.027,8.895,3.289,12.805-3.422c13.665-23.454,20.497-48.657,19.543-75.878c-0.866-24.722-8.306-47.404-21.097-68.449
	c-2.249-3.701-5-5.217-9.088-2.68c-19.81,12.294-39.638,24.561-59.459,36.837C-512.389-154.778-514.365-157.454-516.342-160.131z"/>
<path fill="#010202" d="M-510.485-73.974c-1.985,2.693-3.969,5.386-5.954,8.08c-18.88-11.518-37.93-22.768-56.568-34.665
	c-9.685-6.182-8.783-19.32,1.339-25.751c12.074-7.67,24.315-15.079,36.515-22.548c6.234-3.817,12.538-7.519,18.811-11.273
	c1.976,2.676,3.953,5.352,5.93,8.029c3.232,6.349,6.544,12.654,8.299,19.636C-496.922-111.818-499.91-92.357-510.485-73.974z
	 M-509.575-112.904c0.027-10.878-2.612-21.066-7.763-30.65c-1.24-2.308-2.281-3.176-4.911-1.524
	c-14.521,9.12-29.182,18.016-43.723,27.104c-4.798,2.998-4.748,7.091,0.123,10.125c14.412,8.979,28.957,17.747,43.325,26.796
	c2.913,1.835,3.937,0.745,5.235-1.679C-512.238-92.169-509.62-102.198-509.575-112.904z"/>
</svg>
