<?xml version="1.0" encoding="utf-8"?>
<!-- Generator: Adobe Illustrator 23.0.3, SVG Export Plug-In . SVG Version: 6.00 Build 0)  -->
<svg version="1.1" id="Layer_1" xmlns="http://www.w3.org/2000/svg" xmlns:xlink="http://www.w3.org/1999/xlink" x="0px" y="0px"
	 viewBox="0 0 800 480" style="enable-background:new 0 0 800 480;" xml:space="preserve">
<style type="text/css">
	.st0{fill:#E48344;}
	.st1{display:none;fill:#FFFFFF;enable-background:new    ;}
	.st2{font-family:'ProductSans-Regular';}
	.st3{font-size:78.2094px;}
	.st4{font-size:29.5566px;}
	.st5{opacity:0.9;}
	.st6{fill:#FFFFFF;}
</style>
<rect y="0.9" class="st0" width="800" height="479.1"/>
<text transform="matrix(1 0 0 1 304.478 344.7129)" class="st1 st2 st3">News</text>
<text transform="matrix(1 0 0 1 251.895 381.2168)" class="st1 st2 st4">Bringing the habit back</text>
<g class="st5">
	<path class="st6" d="M305.7,244.3c2,2.6,2.9,5.7,2.9,9.4c0,5.3-2.1,9.4-6.2,12.2c-4.1,2.8-10.1,4.3-18,4.3h-31.2v-60.3h29.5
		c7.4,0,13,1.4,16.9,4.2c3.9,2.8,5.9,6.6,5.9,11.5c0,2.9-0.7,5.5-2.1,7.8c-1.4,2.3-3.4,4.1-5.9,5.4
		C301.1,239.9,303.8,241.7,305.7,244.3z M267.2,220.3v14.2h13.9c3.4,0,6.1-0.6,7.8-1.8c1.8-1.2,2.7-3,2.7-5.3c0-2.4-0.9-4.1-2.7-5.3
		c-1.8-1.2-4.4-1.8-7.8-1.8H267.2z M291.8,257.8c1.9-1.2,2.8-3.1,2.8-5.6c0-5-3.7-7.5-11.1-7.5h-16.3v14.9h16.3
		C287.2,259.7,289.9,259.1,291.8,257.8z"/>
	<path class="st6" d="M345.3,267.2c-5-2.7-9-6.4-11.8-11.2c-2.8-4.7-4.3-10.1-4.3-16c0-5.9,1.4-11.3,4.3-16
		c2.8-4.7,6.8-8.5,11.8-11.2c5-2.7,10.7-4.1,16.9-4.1c6.3,0,11.9,1.4,16.9,4.1c5,2.7,8.9,6.4,11.8,11.2c2.9,4.7,4.3,10.1,4.3,16
		c0,5.9-1.4,11.3-4.3,16c-2.9,4.7-6.8,8.5-11.8,11.2c-5,2.7-10.6,4.1-16.9,4.1C356,271.2,350.4,269.9,345.3,267.2z M371.9,256.9
		c2.9-1.6,5.1-3.9,6.8-6.9c1.6-2.9,2.5-6.3,2.5-10c0-3.7-0.8-7.1-2.5-10c-1.6-2.9-3.9-5.2-6.8-6.9c-2.9-1.6-6.1-2.5-9.7-2.5
		c-3.6,0-6.8,0.8-9.7,2.5c-2.9,1.6-5.1,3.9-6.8,6.9c-1.6,2.9-2.5,6.3-2.5,10c0,3.7,0.8,7.1,2.5,10c1.6,2.9,3.9,5.2,6.8,6.9
		c2.9,1.6,6.1,2.5,9.7,2.5C365.8,259.3,369.1,258.5,371.9,256.9z"/>
	<path class="st6" d="M419.6,209.8h14v49h30.3v11.4h-44.2V209.8z"/>
	<path class="st6" d="M496.7,267.2c-5-2.7-9-6.4-11.8-11.2c-2.8-4.7-4.3-10.1-4.3-16c0-5.9,1.4-11.3,4.3-16
		c2.8-4.7,6.8-8.5,11.8-11.2c5-2.7,10.7-4.1,16.9-4.1c6.3,0,11.9,1.4,16.9,4.1c5,2.7,8.9,6.4,11.8,11.2c2.9,4.7,4.3,10.1,4.3,16
		c0,5.9-1.4,11.3-4.3,16c-2.9,4.7-6.8,8.5-11.8,11.2c-5,2.7-10.6,4.1-16.9,4.1C507.4,271.2,501.8,269.9,496.7,267.2z M523.3,256.9
		c2.9-1.6,5.1-3.9,6.8-6.9c1.6-2.9,2.5-6.3,2.5-10c0-3.7-0.8-7.1-2.5-10c-1.6-2.9-3.9-5.2-6.8-6.9c-2.9-1.6-6.1-2.5-9.7-2.5
		c-3.6,0-6.8,0.8-9.7,2.5c-2.9,1.6-5.1,3.9-6.8,6.9c-1.6,2.9-2.5,6.3-2.5,10c0,3.7,0.8,7.1,2.5,10c1.6,2.9,3.9,5.2,6.8,6.9
		c2.9,1.6,6.1,2.5,9.7,2.5C517.2,259.3,520.4,258.5,523.3,256.9z"/>
</g>
</svg>
