<?xml version="1.0" encoding="utf-8"?>
<!-- Generator: Adobe Illustrator 23.0.3, SVG Export Plug-In . SVG Version: 6.00 Build 0)  -->
<svg version="1.1" id="Layer_1" xmlns="http://www.w3.org/2000/svg" xmlns:xlink="http://www.w3.org/1999/xlink" x="0px" y="0px"
	 viewBox="0 0 1620 480" style="enable-background:new 0 0 1620 480;" xml:space="preserve">
<style type="text/css">
	.st0{fill:#AE1F39;}
	.st1{clip-path:url(#SVGID_2_);}
	.st2{clip-path:url(#SVGID_4_);}
	.st3{fill:#FFFFFF;}
	.st4{clip-path:url(#SVGID_6_);}
	.st5{fill:#243E8A;}
	.st6{clip-path:url(#SVGID_8_);}
	.st7{fill:#EDAB3D;}
	.st8{clip-path:url(#SVGID_10_);}
	.st9{fill:#D03A2C;}
	.st10{clip-path:url(#SVGID_12_);}
	.st11{fill-rule:evenodd;clip-rule:evenodd;fill:#D03A2C;}
	.st12{display:none;}
	.st13{display:inline;fill:#D03A2C;}
	.st14{font-family:'Urbana-SemiBold';}
	.st15{font-size:140.5396px;}
	.st16{font-family:'ProximaNovaACond-Regular';}
	.st17{font-size:55px;}
</style>
<rect class="st0" width="1620" height="480"/>
<title>BurgerKing</title>
<g>
	<g>
		<g>
			<g>
				<g>
					<defs>
						<rect id="SVGID_1_" x="689" y="119" width="242" height="242"/>
					</defs>
					<clipPath id="SVGID_2_">
						<use xlink:href="#SVGID_1_"  style="overflow:visible;"/>
					</clipPath>
					<g class="st1">
						<g>
							<g>
								<g>
									<g>
										<g>
											<defs>
												<rect id="SVGID_3_" x="689" y="119" width="242" height="242"/>
											</defs>
											<clipPath id="SVGID_4_">
												<use xlink:href="#SVGID_3_"  style="overflow:visible;"/>
											</clipPath>
											<g class="st2">
												<path class="st3" d="M698.3,240c0-61.7,50-111.7,111.7-111.7s111.7,50,111.7,111.7s-50,111.7-111.7,111.7
													S698.3,301.7,698.3,240L698.3,240"/>
											</g>
										</g>
									</g>
								</g>
							</g>
						</g>
						<g>
							<g>
								<g>
									<g>
										<g>
											<defs>
												<rect id="SVGID_5_" x="689" y="119" width="242" height="242"/>
											</defs>
											<clipPath id="SVGID_6_">
												<use xlink:href="#SVGID_5_"  style="overflow:visible;"/>
											</clipPath>
											<g class="st4">
												<path class="st5" d="M887.1,270.7C873,302.4,846,324.5,810.5,325c-25.8,0.4-48.6-8.5-65.1-23.9l-10,4.3V290
													c-10.8-14.6-17.1-33.1-17.1-54.2c0-53.8,41.2-96.3,98.7-96.3c8.2,0.1,16.3,1,24.3,2.9c-9.9-3.2-20.2-4.9-30.5-4.9
													c-61.7,0-103.3,50.1-103.3,101.7c0,56.2,44.1,103.4,102,103.4c55.3,0,85.2-39,94.7-62.5L887.1,270.7z"/>
											</g>
										</g>
									</g>
								</g>
							</g>
						</g>
						<g>
							<g>
								<g>
									<g>
										<g>
											<defs>
												<rect id="SVGID_7_" x="689" y="119" width="242" height="242"/>
											</defs>
											<clipPath id="SVGID_8_">
												<use xlink:href="#SVGID_7_"  style="overflow:visible;"/>
											</clipPath>
											<g class="st6">
												<path class="st7" d="M859.7,164.1c0,0-7.6-13-34.6-15.8c-14.4-1.5-34.1,1.4-47.8,8.8c-24.9,13.4-28.7,35.6-28.7,35.6
													c-0.1,0.5-0.4,2.2,0.2,2.9c0.6,0.7,1.4,0.7,2.4,0.4c8.8-3,35-11.7,51.6-16.1c23.6-6.2,42.9-10,55.4-12.2
													c0.8,0,1.6-0.5,2-1.2C860.5,165.6,860.3,164.7,859.7,164.1 M760.6,186.3c-0.3,2.8-3.9,2.5-3.7-0.2
													c0.6-6.7,10.8-22.6,25.9-29.3C773.6,162.5,763.8,174,760.6,186.3 M833,168.2c3.2-1,5.6-3.4,5.5-6.1
													c-0.1-4.4-9.8-10.6-26-11.7c15.9-1.3,33.3,5.8,33.2,11.9C845.6,165.9,841.1,166.2,833,168.2"/>
												<path class="st7" d="M877.9,263.7c-0.6-0.7-1.6-0.7-2.8-0.4c-28.6,6.7-76.1,21.2-103.5,33c-1.2,0.5-1.7,0.7-2.1,1.6
													c-0.6,1.3,0.7,2.6,0.7,2.6c5.6,7,30.4,15.9,57.3,9.4c41.1-10,49.8-39,50.8-43.1C878.5,265.8,878.6,264.5,877.9,263.7
													 M868.5,275.2c-6.5,13.8-18.3,23-30.5,27.8c11.6-6.5,20.5-16.8,25.4-29.1C865,269.2,870.4,271.2,868.5,275.2"/>
											</g>
										</g>
									</g>
								</g>
							</g>
						</g>
						<g>
							<g>
								<g>
									<g>
										<g>
											<defs>
												<rect id="SVGID_9_" x="689" y="119" width="242" height="242"/>
											</defs>
											<clipPath id="SVGID_10_">
												<use xlink:href="#SVGID_9_"  style="overflow:visible;"/>
											</clipPath>
											<g class="st8">
												<path class="st9" d="M872.8,259.6c8.1-0.9,13.7-4.2,16.8-7.2c2.8-2.8,3.5-6.6,3.5-9.4c0.1-4.1,0-17.2,0-17.2l-21.5,4.6
													c0,0,0,1.6,0,5s1.6,5.1,5.1,4.5c0.9-0.2,1.9-0.4,2.8-0.7v4.1c0-0.1,0.3,2.3-5.1,3.4c-7.1,1.1-10.3-3.2-10.4-10.9
													c0.1-8.3,4.8-13,10.5-14.3c6.4-1.5,10,0.1,12.1,0.4c7.1,1.1,9.1-9.6,2.7-12.1c-4.8-1.9-11-2.3-16.9-1.1
													c-7.9,1.6-23.4,8.2-23.5,29.7C848.9,255.4,861.5,260.9,872.8,259.6"/>
												<path class="st9" d="M803,277.9l7.2-2.5c5.3-1.8,7.2-5,7.2-10.4c-0.1-5.9-0.1-17.5-0.1-17.5l15.3,17.7
													c2.5,2.6,5.6,2.8,8.5,2c3.3-1,5.5-4,5.5-7.4c0-12.8,0-43.9,0-43.9s-4,0.8-7.2,1.8c-3.8,1.1-6.7,3.5-6.7,9.8
													c0,2.2,0,15.2,0,15.2s-8.6-10.8-14.3-16.5c-3-3-8-1.2-8-1.2l-7.4,2.2V277.9z"/>
												<path class="st9" d="M798.3,228.4c0,0-4.6,1.4-8.4,2.7c-4.9,1.8-7.7,4.6-7.7,12c0,6.8,0,42.1,0,42.1s4.3-1.5,8.3-3
													c5.7-2.1,7.8-5.1,7.8-11C798.4,266.1,798.4,228.4,798.3,228.4"/>
												<path class="st9" d="M775.4,238.4c-3.3-1.6-7.4-0.5-9.4,2.6l-13,22.1v-17.8l-15.3,6.4l-0.1,50.5l10.8-4.5
													c1.4-0.5,2.6-1.4,3.4-2.6c1.2-1.9,1.1-5,1.1-5v-16l12.1,12.8c3.1,3.4,8.3,3.7,11.8,0.7c3.3-2.7,3.8-7.6,1.1-10.9
													l-11-11.1c0,0,9.7-15.3,11.3-17.8c1.9-2.9,1.2-6.8-1.7-8.7C776.2,238.8,775.8,238.6,775.4,238.4"/>
												<path class="st9" d="M754.9,230.3c0.1,7.1-5,10.8-11.6,13.6l-13.6,5.8v-36.8c0,0,8.5-3.5,11.3-4.5
													c7.9-2.8,12.6,0.6,12.6,5.9c0,3.6-1.5,6.5-4.8,9.2C752.2,224,754.8,226.9,754.9,230.3 M739,223.5
													c0.7-0.3,1.2-0.5,1.7-0.8c2.1-0.9,3.4-2.9,3.5-5.2c0-2.7-2.2-3.4-5.2-1.9V223.5z M745,231.6c0-2.8-2.2-4.3-5.9-2.4v8.9
													c0,0,1.2-0.5,2.1-0.9C743.4,236.2,745.1,234.3,745,231.6"/>
												<path class="st9" d="M780.6,218.5c-0.1,10.1-4.8,14-11.8,16.1c-8,2.4-13.2-1.4-13.2-9c0-6.5,0-22.7,0-22.7
													s1.7-0.7,4.6-1.7c2.6-0.9,4.7,0.1,4.7,3.2v18.7c0,2.3,1,3.7,3.2,3.2c2.8-0.7,3.2-3.6,3.2-5.8v-22.9c0,0,2.4-0.9,4.5-1.5
													c2.6-0.7,4.7,0.1,4.7,3.2L780.6,218.5z"/>
												<path class="st9" d="M839.1,212.6l0.1-33.5c5.8-1.3,15-3.2,19.9-4c0,0,0,2.6,0,3.9c0,2-0.7,3.5-2.8,3.9l-7.8,1.6v5.1
													l9.8-2.1c0,0,0,1.7,0,3.7c0,2.1-1,3.2-2.8,3.6c-1.5,0.3-6.9,1.5-6.9,1.5v6.5l11-2.4c0,0,0,1.7,0,3.9
													c0,2.5-1.3,3.9-3.3,4.3C850,210.1,839.1,212.6,839.1,212.6"/>
												<path class="st9" d="M792.4,212.6c0,0,0,6.4,0,9c0,2.4-1.7,4.2-3.8,5l0,0l-5.5,1.9V194c0,0,7.7-2.7,12.2-3.7
													c7-1.6,12,1.6,11.9,7.3c0,5.4-3.1,8.7-5.8,10.9l6,5.7c1.9,1.9,1.9,4.9,0,6.8l-0.1,0.1c-2,1.8-5.1,1.7-7-0.3L792.4,212.6
													z M792.4,207.4c0,0,5.5-2.8,5.4-7.3c-0.1-3.8-3.6-3-5.4-2.3V207.4z"/>
												<path class="st9" d="M861.4,207.8v-33.1c0,0,9.7-1.7,12.2-2c6.9-0.9,11.6,3,11.5,8.4c0,4.8-3.1,7.7-5.6,9.4
													c0,0,4.7,5.3,6,6.7c1.6,1.8,1.5,4.6-0.3,6.3c-0.2,0.2-0.4,0.3-0.6,0.5c-2,1.4-4.7,1-6.3-0.8l-7.8-9.1c0,0,0,5.6,0,8.1
													c0.1,2.4-1.6,4.4-4,4.7L861.4,207.8z M870.4,188.8c0,0,5.4-2,5.3-6.3c-0.1-3.6-3.6-3-5.3-2.6V188.8z"/>
												<path class="st9" d="M836.9,206.9c0,2.2-0.9,4.3-2.5,5.8c-1.8,1.5-4.3,3.2-9.4,4.3c-9,1.6-16.4-3.4-16.4-14.7
													c0-11.1,6.6-20.3,19.5-20.8c6-0.2,8.7,1.7,8.7,4.9c-0.1,2.9-2.1,4.6-5.6,4c-1.8-0.3-3.6-0.3-5.4,0.1
													c-4.1,1-7.1,4.8-7.2,11.2c0,4.9,1.9,7.4,5.2,7.5c2.3,0.1,4.6-0.9,4.6-2.4V203c0,0-0.9,0.2-2,0.4c-1.8,0.4-3-0.8-3.1-2.5
													c0-2.4,0-3.8,0-3.8L837,194L836.9,206.9z"/>
											</g>
										</g>
									</g>
								</g>
							</g>
						</g>
						<g>
							<g>
								<g>
									<g>
										<g>
											<defs>
												<rect id="SVGID_11_" x="689" y="119" width="242" height="242"/>
											</defs>
											<clipPath id="SVGID_12_">
												<use xlink:href="#SVGID_11_"  style="overflow:visible;"/>
											</clipPath>
											<g class="st10">
												<path class="st11" d="M898.6,266.9h0.8c0.4,0,0.9,0.1,0.9,0.6s-0.4,0.6-0.9,0.6h-0.8V266.9z M897.7,270.7h0.9v-1.9h0.6
													l1.1,1.9h0.9l-1.2-2c0.6,0,1.2-0.4,1.2-1.1v-0.1c0-1-0.6-1.3-1.8-1.3h-1.7V270.7L897.7,270.7z M896.1,268.4
													c0.1-1.7,1.5-3.1,3.3-3c1.7,0.1,3.1,1.5,3,3.3c-0.1,1.7-1.5,3-3.1,3c-1.7,0-3.2-1.4-3.2-3.1
													C896.1,268.5,896.1,268.5,896.1,268.4 M895.4,268.4c0,2.1,1.7,3.9,3.8,3.9c2.1,0,3.9-1.7,3.9-3.8c0-2.1-1.7-3.9-3.8-3.9
													l0,0C897.2,264.6,895.4,266.3,895.4,268.4L895.4,268.4"/>
											</g>
										</g>
									</g>
								</g>
							</g>
						</g>
					</g>
				</g>
			</g>
		</g>
	</g>
</g>
<g class="st12">
	<text transform="matrix(1 0 0 1 591.7336 259.8948)" class="st13 st14 st15">#GrillTheNation</text>
	<text transform="matrix(1 0 0 1 653.3276 323.5583)" class="st13 st16 st17">Burger King Advertising Campaign</text>
</g>
</svg>
