<?xml version="1.0" encoding="utf-8"?>
<!-- Generator: Adobe Illustrator 23.0.3, SVG Export Plug-In . SVG Version: 6.00 Build 0)  -->
<svg version="1.1" id="Layer_1" xmlns="http://www.w3.org/2000/svg" xmlns:xlink="http://www.w3.org/1999/xlink" x="0px" y="0px"
	 viewBox="0 0 800 480" style="enable-background:new 0 0 800 480;" xml:space="preserve">
<style type="text/css">
	.st0{display:none;}
	.st1{display:inline;fill:#D03A2C;}
	.st2{font-family:'Urbana-SemiBold';}
	.st3{font-size:140.5396px;}
	.st4{font-family:'ProximaNovaACond-Regular';}
	.st5{font-size:55px;}
	.st6{fill:#FFFFFF;}
</style>
<rect y="0" width="800" height="480"/>
<title>BurgerKing</title>
<g class="st0">
	<text transform="matrix(1 0 0 1 181.7336 259.8948)" class="st1 st2 st3">#GrillTheNation</text>
	<text transform="matrix(1 0 0 1 243.3276 323.5583)" class="st1 st4 st5">Burger King Advertising Campaign</text>
</g>
<g>
	<path class="st6" d="M273.6,220.7v1l-23.1,34.7h11.8c4.1,0,6.7-0.5,7.8-1.6s2.2-3.6,3.2-7.7l1.5,0.3l-1.2,11.5h-32.3v-1l22.8-34.8
		h-11.2c-3,0-5,0.5-5.9,1.5c-0.9,1-1.6,3-1.9,6h-1.5l0.1-10.1H273.6z"/>
	<path class="st6" d="M306.8,224c2.9,2.7,4.4,6.6,4.4,11.5h-26.5c0.3,6.4,1.7,11.1,4.4,14.1c2.6,2.9,5.8,4.4,9.4,4.4
		c2.9,0,5.4-0.8,7.4-2.3c2-1.5,3.8-3.7,5.5-6.5l1.5,0.5c-1.1,3.5-3.3,6.8-6.4,9.8c-3.1,3-7,4.5-11.5,4.5c-5.2,0-9.3-2-12.1-5.9
		s-4.3-8.5-4.3-13.6c0-5.6,1.7-10.4,5-14.5c3.3-4.1,7.6-6.1,12.9-6.1C300.4,219.9,303.9,221.3,306.8,224z M286.9,227.2
		c-0.9,1.5-1.5,3.4-1.9,5.7h17.6c-0.3-2.8-0.8-4.8-1.6-6.2c-1.4-2.4-3.6-3.7-6.8-3.7C290.9,222.9,288.5,224.4,286.9,227.2z"/>
	<path class="st6" d="M315.2,257.6c2.6-0.2,4.3-0.7,5.1-1.4c0.8-0.7,1.3-2.1,1.3-4.4v-18.8c0-2.8-0.3-4.7-0.8-5.9
		c-0.5-1.2-1.5-1.8-2.8-1.8c-0.3,0-0.6,0-1.1,0.1c-0.5,0.1-0.9,0.2-1.4,0.3v-1.4c1.6-0.6,3.2-1.1,4.9-1.7c1.7-0.6,2.8-1,3.4-1.3
		c1.4-0.5,2.8-1.1,4.3-1.8c0.2,0,0.3,0.1,0.4,0.2c0,0.1,0.1,0.4,0.1,0.9v6.8c1.8-2.5,3.5-4.4,5.2-5.8c1.7-1.4,3.4-2.1,5.2-2.1
		c1.4,0,2.6,0.4,3.5,1.3c0.9,0.8,1.3,1.9,1.3,3.2c0,1.1-0.3,2.1-1,2.9c-0.7,0.8-1.5,1.2-2.6,1.2c-1.1,0-2.1-0.5-3.2-1.5
		c-1.1-1-1.9-1.5-2.5-1.5c-1,0-2.2,0.8-3.6,2.4c-1.4,1.6-2.1,3.2-2.1,4.9v18.8c0,2.4,0.6,4.1,1.7,5c1.1,0.9,3,1.4,5.5,1.3v1.4h-20.6
		V257.6z"/>
	<path class="st6" d="M350.7,225.6c3.5-3.8,8-5.7,13.6-5.7c5.5,0,10.1,1.8,13.7,5.4c3.6,3.6,5.4,8.4,5.4,14.4
		c0,5.5-1.8,10.3-5.3,14.4c-3.5,4.1-8,6.1-13.6,6.1c-5.3,0-9.9-2-13.5-5.9s-5.5-8.8-5.5-14.8C345.5,234.1,347.2,229.5,350.7,225.6z
		 M357.4,224.6c-2.8,2.5-4.2,6.9-4.2,13.1c0,4.9,1.1,9.6,3.4,13.8c2.2,4.3,5.4,6.4,9.3,6.4c3.1,0,5.5-1.4,7.2-4.3
		c1.7-2.9,2.5-6.6,2.5-11.3c0-4.8-1.1-9.3-3.2-13.6c-2.1-4.3-5.2-6.4-9.3-6.4C360.9,222.4,359,223.1,357.4,224.6z"/>
	<path class="st6" d="M389.3,237.1h21.1v5.3h-21.1V237.1z"/>
	<path class="st6" d="M449,220.7v1l-23.1,34.7h11.8c4.1,0,6.7-0.5,7.8-1.6s2.2-3.6,3.2-7.7l1.5,0.3l-1.2,11.5h-32.3v-1l22.8-34.8
		h-11.2c-3,0-5,0.5-5.9,1.5c-0.9,1-1.6,3-1.9,6H419l0.1-10.1H449z"/>
	<path class="st6" d="M482.2,224c2.9,2.7,4.4,6.6,4.4,11.5h-26.5c0.3,6.4,1.7,11.1,4.4,14.1c2.6,2.9,5.8,4.4,9.4,4.4
		c2.9,0,5.4-0.8,7.4-2.3c2-1.5,3.8-3.7,5.5-6.5l1.5,0.5c-1.1,3.5-3.3,6.8-6.4,9.8c-3.1,3-7,4.5-11.5,4.5c-5.2,0-9.3-2-12.1-5.9
		s-4.3-8.5-4.3-13.6c0-5.6,1.7-10.4,5-14.5c3.3-4.1,7.6-6.1,12.9-6.1C475.8,219.9,479.2,221.3,482.2,224z M462.2,227.2
		c-0.9,1.5-1.5,3.4-1.9,5.7h17.6c-0.3-2.8-0.8-4.8-1.6-6.2c-1.4-2.4-3.6-3.7-6.8-3.7C466.3,222.9,463.9,224.4,462.2,227.2z"/>
	<path class="st6" d="M490.6,257.6c2.6-0.2,4.3-0.7,5.1-1.4c0.8-0.7,1.3-2.1,1.3-4.4v-18.8c0-2.8-0.3-4.7-0.8-5.9
		c-0.5-1.2-1.5-1.8-2.8-1.8c-0.3,0-0.6,0-1.1,0.1c-0.5,0.1-0.9,0.2-1.4,0.3v-1.4c1.6-0.6,3.2-1.1,4.9-1.7c1.7-0.6,2.8-1,3.4-1.3
		c1.4-0.5,2.8-1.1,4.3-1.8c0.2,0,0.3,0.1,0.4,0.2c0,0.1,0.1,0.4,0.1,0.9v6.8c1.8-2.5,3.5-4.4,5.2-5.8c1.7-1.4,3.4-2.1,5.2-2.1
		c1.4,0,2.6,0.4,3.5,1.3s1.3,1.9,1.3,3.2c0,1.1-0.3,2.1-1,2.9c-0.7,0.8-1.5,1.2-2.6,1.2c-1.1,0-2.1-0.5-3.2-1.5
		c-1.1-1-1.9-1.5-2.5-1.5c-1,0-2.2,0.8-3.6,2.4c-1.4,1.6-2.1,3.2-2.1,4.9v18.8c0,2.4,0.6,4.1,1.7,5c1.1,0.9,3,1.4,5.5,1.3v1.4h-20.6
		V257.6z"/>
	<path class="st6" d="M526.1,225.6c3.5-3.8,8-5.7,13.6-5.7c5.5,0,10.1,1.8,13.7,5.4c3.6,3.6,5.4,8.4,5.4,14.4
		c0,5.5-1.8,10.3-5.3,14.4c-3.5,4.1-8,6.1-13.6,6.1c-5.3,0-9.9-2-13.5-5.9c-3.7-3.9-5.5-8.8-5.5-14.8
		C520.8,234.1,522.6,229.5,526.1,225.6z M532.7,224.6c-2.8,2.5-4.2,6.9-4.2,13.1c0,4.9,1.1,9.6,3.4,13.8c2.2,4.3,5.4,6.4,9.3,6.4
		c3.1,0,5.5-1.4,7.2-4.3c1.7-2.9,2.5-6.6,2.5-11.3c0-4.8-1.1-9.3-3.2-13.6c-2.1-4.3-5.2-6.4-9.3-6.4
		C536.3,222.4,534.4,223.1,532.7,224.6z"/>
</g>
</svg>
