<?xml version="1.0" encoding="utf-8"?>
<!-- Generator: Adobe Illustrator 23.0.3, SVG Export Plug-In . SVG Version: 6.00 Build 0)  -->
<svg version="1.1" id="Layer_1" xmlns="http://www.w3.org/2000/svg" xmlns:xlink="http://www.w3.org/1999/xlink" x="0px" y="0px"
	 viewBox="0 0 800 490" style="enable-background:new 0 0 800 490;" xml:space="preserve">
<style type="text/css">
	.st0{fill:#231413;}
	.st1{fill:none;stroke:#FFFFFF;stroke-width:9.0992;stroke-linecap:round;stroke-linejoin:round;stroke-miterlimit:10;}
	.st2{display:none;}
	.st3{display:inline;fill:#2C1C18;}
	.st4{font-family:'Intro';}
	.st5{font-size:60.857px;}
	.st6{font-family:'ArialMT';}
	.st7{display:none;fill:#2C1C18;enable-background:new    ;}
	.st8{font-family:'GoogleSans-Regular';}
	.st9{font-size:24px;}
</style>
<rect class="st0" width="800" height="490"/>
<g>
	<path class="st1" d="M368.3,218.2l-63.8-33.7l10.1-4.2c10.8-4.5,22.8-5.2,34-1.9l67.9,20.1"/>
	<path class="st1" d="M549.6,187.3c-7.5,4.6-15.3,8.7-23.5,12.1l-66.7,28l-44.8,89.2c-4.1,8.2-10.7,15.1-18.7,19.6l-14.1,7.9
		l22.3-93.4l-104.5,43.8c-8.6,3.6-18.5-0.4-22.2-9.1l-27-64.4c11.5-1.1,23,1.5,32.8,7.5l25.3,15.4c0,0,130.6-54.8,175.2-73.4
		c22.3-9.3,38.7-5.1,49.6,1.5C544.2,178.4,549.6,187.3,549.6,187.3z"/>
</g>
<g class="st2">
	<text transform="matrix(1 0 0 1 249.3897 283.2908)" class="st3 st4 st5">Smart on</text>
	<text transform="matrix(1 0 0 1 574.7277 283.2908)" class="st3 st6 st5">-</text>
	<text transform="matrix(1 0 0 1 593.4107 283.2908)" class="st3 st4 st5">demand </text>
</g>
<text transform="matrix(1 0 0 1 163.4297 334.4754)" class="st7 st4 st5">flight booking system</text>
<text transform="matrix(1 0 0 1 190.4856 369.578)" class="st7 st8 st9">FTE/KLM/TU Delft Student Disruptor Global Design Challenge Winner</text>
</svg>
