<?xml version="1.0" encoding="utf-8"?>
<!-- Generator: Adobe Illustrator 23.0.3, SVG Export Plug-In . SVG Version: 6.00 Build 0)  -->
<svg version="1.1" id="Layer_1" xmlns="http://www.w3.org/2000/svg" xmlns:xlink="http://www.w3.org/1999/xlink" x="0px" y="0px"
	 viewBox="0 0 800 480" style="enable-background:new 0 0 800 480;" xml:space="preserve">
<style type="text/css">
	.st0{fill:#231413;}
	.st1{fill:none;stroke:#FFFFFF;stroke-width:8.1878;stroke-linecap:round;stroke-linejoin:round;stroke-miterlimit:10;}
	.st2{display:none;}
	.st3{display:inline;fill:#2C1C18;}
	.st4{font-family:'Intro';}
	.st5{font-size:60.857px;}
	.st6{font-family:'ArialMT';}
	.st7{display:none;fill:#2C1C18;enable-background:new    ;}
	.st8{font-family:'GoogleSans-Regular';}
	.st9{font-size:24px;}
	.st10{fill:none;}
	.st11{enable-background:new    ;}
	.st12{fill:#FFFFFF;}
	.st13{font-family:'HelveticaNeue-Bold';}
	.st14{font-size:16px;}
	.st15{font-family:'HelveticaNeue';}
	.st16{fill:none;stroke:#FFFFFF;stroke-linejoin:round;stroke-miterlimit:10;}
</style>
<rect class="st0" width="800" height="480"/>
<g>
	<path class="st1" d="M371.5,216.8l-57.4-30.3l9.1-3.8c9.7-4,20.5-4.7,30.6-1.7l61.1,18.1"/>
	<path class="st1" d="M534.6,189c-6.7,4.1-13.8,7.8-21.1,10.9l-60,25.2l-40.3,80.3c-3.7,7.4-9.6,13.6-16.8,17.6l-12.7,7.1l20.1-84
		l-94,39.4c-7.7,3.2-16.6-0.4-20-8.2l-24.3-57.9c10.3-1,20.7,1.3,29.5,6.7l22.8,13.9c0,0,117.5-49.3,157.7-66
		c20.1-8.4,34.8-4.6,44.6,1.3C529.8,181,534.6,189,534.6,189z"/>
</g>
<g class="st2">
	<text transform="matrix(1 0 0 1 249.3896 278.2908)" class="st3 st4 st5">Smart on</text>
	<text transform="matrix(1 0 0 1 574.7278 278.2908)" class="st3 st6 st5">-</text>
	<text transform="matrix(1 0 0 1 593.4106 278.2908)" class="st3 st4 st5">demand </text>
</g>
<text transform="matrix(1 0 0 1 163.4297 329.4753)" class="st7 st4 st5">flight booking system</text>
<text transform="matrix(1 0 0 1 190.4856 364.578)" class="st7 st8 st9">FTE/KLM/TU Delft Student Disruptor Global Design Challenge Winner</text>
<rect x="591.4" y="14" class="st10" width="191.6" height="40.6"/>
<text transform="matrix(1 0 0 1 591.4402 27.6857)" class="st11"><tspan x="0" y="0" class="st12 st13 st14">Winner</tspan><tspan x="53.6" y="0" class="st12 st15 st14">, Student Disruptor </tspan></text>
<text transform="matrix(1 0 0 1 591.4402 46.8857)" class="st12 st15 st14">Global Design Challenge</text>
<polyline class="st16" points="576.8,0 576.8,61.6 558.9,48.7 540.9,61.6 540.9,0 "/>
</svg>
