<?xml version="1.0" encoding="utf-8"?>
<!-- Generator: Adobe Illustrator 23.0.3, SVG Export Plug-In . SVG Version: 6.00 Build 0)  -->
<svg version="1.1" id="Layer_1" xmlns="http://www.w3.org/2000/svg" xmlns:xlink="http://www.w3.org/1999/xlink" x="0px" y="0px"
	 viewBox="0 0 800 480" style="enable-background:new 0 0 800 480;" xml:space="preserve">
<style type="text/css">
	.st0{fill:#507DBC;}
	.st1{display:none;fill:#FFFFFF;enable-background:new    ;}
	.st2{font-family:'ProductSans-Regular';}
	.st3{font-size:78.2094px;}
	.st4{font-size:29.5566px;}
	.st5{clip-path:url(#SVGID_2_);}
	.st6{clip-path:url(#SVGID_4_);fill:#FFFFFF;}
	.st7{clip-path:url(#SVGID_6_);}
	.st8{clip-path:url(#SVGID_8_);fill:#FFFFFF;}
</style>
<rect y="0.9" class="st0" width="800" height="479.1"/>
<text transform="matrix(1 0 0 1 304.478 344.7129)" class="st1 st2 st3">News</text>
<text transform="matrix(1 0 0 1 251.895 381.2168)" class="st1 st2 st4">Bringing the habit back</text>
<g>
	<g>
		<defs>
			<path id="SVGID_1_" d="M370.4,177.4c-22.8,0-41.3,17.8-41.3,39.8v44.4h82.6v-44.4C411.7,195.2,393.2,177.4,370.4,177.4z
				 M370.8,159.1c32.8,0,59.4,25.6,59.4,57V278H311.5v-61.8C311.5,184.7,338.1,159.1,370.8,159.1z"/>
		</defs>
		<clipPath id="SVGID_2_">
			<use xlink:href="#SVGID_1_"  style="overflow:visible;"/>
		</clipPath>
		<g class="st5">
			<defs>
				<rect id="SVGID_3_" x="162.4" y="-300.1" width="1920" height="1080"/>
			</defs>
			<clipPath id="SVGID_4_">
				<use xlink:href="#SVGID_3_"  style="overflow:visible;"/>
			</clipPath>
			<rect x="306.5" y="154.1" class="st6" width="128.8" height="128.8"/>
		</g>
	</g>
	<g>
		<defs>
			<path id="SVGID_5_" d="M470,218.4h-82.6v44.4c0,21.9,18.5,39.8,41.3,39.8c22.8,0,41.3-17.8,41.3-39.8V218.4z M488.5,202v61.8
				c0,31.4-26.6,57-59.4,57c-32.8,0-59.4-25.6-59.4-57V202H488.5z"/>
		</defs>
		<clipPath id="SVGID_6_">
			<use xlink:href="#SVGID_5_"  style="overflow:visible;"/>
		</clipPath>
		<g class="st7">
			<defs>
				<rect id="SVGID_7_" x="162.4" y="-300.1" width="1920" height="1080"/>
			</defs>
			<clipPath id="SVGID_8_">
				<use xlink:href="#SVGID_7_"  style="overflow:visible;"/>
			</clipPath>
			<rect x="364.8" y="197" class="st8" width="128.8" height="128.8"/>
		</g>
	</g>
</g>
</svg>
