<?xml version="1.0" encoding="utf-8"?>
<!-- Generator: Adobe Illustrator 23.0.3, SVG Export Plug-In . SVG Version: 6.00 Build 0)  -->
<svg version="1.1" id="Layer_1" xmlns="http://www.w3.org/2000/svg" xmlns:xlink="http://www.w3.org/1999/xlink" x="0px" y="0px"
	 viewBox="0 0 800 480" style="enable-background:new 0 0 800 480;" xml:space="preserve">
<style type="text/css">
	.st0{fill:#2A5094;}
	.st1{display:none;fill:#FFFFFF;enable-background:new    ;}
	.st2{font-family:'ProductSans-Regular';}
	.st3{font-size:78.2094px;}
	.st4{font-size:29.5566px;}
	.st5{fill:none;stroke:#FFFFFF;stroke-width:8;stroke-miterlimit:10;}
</style>
<rect y="0.9" class="st0" width="800" height="479.1"/>
<text transform="matrix(1 0 0 1 304.478 344.7129)" class="st1 st2 st3">News</text>
<text transform="matrix(1 0 0 1 251.895 381.2168)" class="st1 st2 st4">Bringing the habit back</text>
<path class="st5" d="M494.2,314.5h-53.4c-4.7,0-9.2-1.9-12.5-5.3l-13.8-14c-7.7-7.8-20.1-8-28-0.5l-15.7,14.9
	c-3.3,3.1-7.6,4.8-12.1,4.8h-52.7c-17,0-30.7-13.8-30.7-30.7v-87.4c0-17,13.8-30.7,30.7-30.7h188.3c17,0,30.7,13.8,30.7,30.7v87.4
	C524.9,300.7,511.1,314.5,494.2,314.5z"/>
<circle class="st5" cx="339.2" cy="236.3" r="32.8"/>
<circle class="st5" cx="460.8" cy="236.3" r="32.8"/>
</svg>
