<?xml version="1.0" encoding="utf-8"?>
<!-- Generator: Adobe Illustrator 23.0.3, SVG Export Plug-In . SVG Version: 6.00 Build 0)  -->
<svg version="1.1" id="Layer_1" xmlns="http://www.w3.org/2000/svg" xmlns:xlink="http://www.w3.org/1999/xlink" x="0px" y="0px"
	 viewBox="0 0 959.76 271.78" enable-background="new 0 0 959.76 271.78" xml:space="preserve">
<text transform="matrix(1 0 0 1 340.216 142.0356)" font-family="'GoogleSans-Regular'" font-size="20px">Machine Learning algorithms help analyze data and find </text>
<text transform="matrix(1 0 0 1 340.216 164.8357)" font-family="'GoogleSans-Regular'" font-size="20px">recurring patterns. </text>
<text transform="matrix(1 0 0 1 340.216 187.6357)" font-family="'GoogleSans-Regular'" font-size="20px">This further helps to predict human behaviour and outcomes.</text>
<g>
	<text transform="matrix(1 0 0 1 340.2158 109.5442)" fill="#241312" font-family="'Intro'" font-size="35.836px">Machine Learning</text>
</g>
<rect x="160.405" y="104.149" fill="none" stroke="#E45951" stroke-width="14" stroke-linecap="round" stroke-linejoin="round" stroke-miterlimit="10" width="70.5" height="70.5"/>
<polyline fill="none" stroke="#E45951" stroke-width="14" stroke-linecap="round" stroke-linejoin="round" stroke-miterlimit="10" points="
	216.912,89.649 216.912,104.149 195.662,104.149 195.655,104.149 174.405,104.149 174.405,89.649 "/>
<polyline fill="none" stroke="#E45951" stroke-width="14" stroke-linecap="round" stroke-linejoin="round" stroke-miterlimit="10" points="
	145.905,118.142 160.405,118.142 160.405,139.392 160.405,139.399 160.405,160.649 145.905,160.649 "/>
<polyline fill="none" stroke="#E45951" stroke-width="14" stroke-linecap="round" stroke-linejoin="round" stroke-miterlimit="10" points="
	174.398,189.149 174.398,174.649 195.648,174.649 195.655,174.649 216.905,174.649 216.905,189.149 "/>
<polyline fill="none" stroke="#E45951" stroke-width="14" stroke-linecap="round" stroke-linejoin="round" stroke-miterlimit="10" points="
	245.405,160.656 230.905,160.656 230.905,139.406 230.905,139.399 230.905,118.149 245.405,118.149 "/>
<path fill="none" stroke="#E45951" stroke-width="14" stroke-linecap="round" stroke-linejoin="round" stroke-miterlimit="10" d="
	M258.655,96.899c23.472,0,42.5,19.028,42.5,42.5s-19.028,42.5-42.5,42.5"/>
<path fill="none" stroke="#E45951" stroke-width="14" stroke-linecap="round" stroke-linejoin="round" stroke-miterlimit="10" d="
	M216.913,42.442V27.444c16.976,2.431,30.586,13.293,36.106,29.056c15.546,0,27.553,12.603,27.553,28.149"/>
<path fill="none" stroke="#E45951" stroke-width="14" stroke-linecap="round" stroke-linejoin="round" stroke-miterlimit="10" d="
	M216.9,215.481v28.855c16.754-1.085,30.551-13.023,34.432-28.855c3.868,1.715,7.57,2.418,12.074,2.418
	c17.259,0,31.25-13.991,31.25-31.25c0-6.561-2.022-12.649-5.476-17.676"/>
<path fill="none" stroke="#E45951" stroke-width="14" stroke-linecap="round" stroke-linejoin="round" stroke-miterlimit="10" d="
	M132.65,96.899c-23.472,0-42.5,19.028-42.5,42.5s19.028,42.5,42.5,42.5"/>
<path fill="none" stroke="#E45951" stroke-width="14" stroke-linecap="round" stroke-linejoin="round" stroke-miterlimit="10" d="
	M174.392,42.442V27.444c-16.976,2.431-30.586,13.293-36.106,29.056c-15.546,0-27.553,12.603-27.553,28.149"/>
<path fill="none" stroke="#E45951" stroke-width="14" stroke-linecap="round" stroke-linejoin="round" stroke-miterlimit="10" d="
	M174.405,215.481v28.855c-16.754-1.085-30.551-13.023-34.432-28.855c-3.868,1.715-7.57,2.418-12.074,2.418
	c-17.259,0-31.25-13.991-31.25-31.25c0-6.561,2.022-12.649,5.476-17.676"/>
</svg>
