<?xml version="1.0" encoding="utf-8"?>
<!-- Generator: Adobe Illustrator 23.0.3, SVG Export Plug-In . SVG Version: 6.00 Build 0)  -->
<svg version="1.1" id="Layer_1" xmlns="http://www.w3.org/2000/svg" xmlns:xlink="http://www.w3.org/1999/xlink" x="0px" y="0px"
	 viewBox="0 0 959.76 501.78" enable-background="new 0 0 959.76 501.78" xml:space="preserve">
<text transform="matrix(1 0 0 1 76.7614 218.1233)" font-family="'GoogleSans-Regular'" font-size="20px">1. The essential four. Where to? When? </text>
<text transform="matrix(1 0 0 1 76.7614 240.9233)" font-family="'GoogleSans-Regular'" font-size="20px">How many? Class?</text>
<text transform="matrix(1 0 0 1 76.7614 282.1235)" font-family="'GoogleSans-Regular'" font-size="20px">2. Choose a flight based on the time,</text>
<text transform="matrix(1 0 0 1 76.7614 304.9236)" font-family="'GoogleSans-Regular'" font-size="20px">airline, price, number of hops and a</text>
<text transform="matrix(1 0 0 1 76.7614 327.7236)" font-family="'GoogleSans-Regular'" font-size="20px">few others.</text>
<text transform="matrix(1 0 0 1 76.7614 369.1233)" font-family="'GoogleSans-Regular'" font-size="20px">3. Pick a seat before checking in (a paid or</text>
<text transform="matrix(1 0 0 1 76.7614 391.9232)" font-family="'GoogleSans-Regular'" font-size="20px">free option based on the airlines).</text>
<text transform="matrix(1 0 0 1 526.7609 218.1233)" font-family="'GoogleSans-Regular'" font-size="20px">5. Pick, if required, a suitable</text>
<text transform="matrix(1 0 0 1 526.7609 240.9233)" font-family="'GoogleSans-Regular'" font-size="20px">in-flight meal.</text>
<text transform="matrix(1 0 0 1 526.7611 282.1235)" font-family="'GoogleSans-Regular'" font-size="20px">6. Give appropriate personal detials - in</text>
<text transform="matrix(1 0 0 1 526.7611 304.9236)" font-family="'GoogleSans-Regular'" font-size="20px">particular for unregistered passengers.</text>
<text transform="matrix(1 0 0 1 526.7609 350.1233)" font-family="'GoogleSans-Regular'" font-size="20px">7. Pay for the ticket before reaching the</text>
<text transform="matrix(1 0 0 1 526.7609 372.9232)" font-family="'GoogleSans-Regular'" font-size="20px">confirmation page.</text>
<text transform="matrix(1 0 0 1 76.7616 432.1236)" font-family="'GoogleSans-Regular'" font-size="20px">4. Go through several premium upgrades</text>
<text transform="matrix(1 0 0 1 76.7616 454.9236)" font-family="'GoogleSans-Regular'" font-size="20px">and special features targetted at passengers.</text>
<g>
	<text transform="matrix(1 0 0 1 137.0145 90.3916)" fill="#241312" font-family="'Intro'" font-size="66.5682px">dreaded</text>
	<text transform="matrix(1 0 0 1 111.0091 145.3208)" fill="#241312" font-family="'Intro'" font-size="66.5682px">STEPS</text>
	<text transform="matrix(1 0 0 1 46.533 145.3208)" fill="#E13A2B" font-family="'Intro-Inline'" font-size="166.8691px">7</text>
</g>
</svg>
