<?xml version="1.0" encoding="utf-8"?>
<!-- Generator: Adobe Illustrator 23.0.3, SVG Export Plug-In . SVG Version: 6.00 Build 0)  -->
<svg version="1.1" id="Layer_1" xmlns="http://www.w3.org/2000/svg" xmlns:xlink="http://www.w3.org/1999/xlink" x="0px" y="0px"
	 viewBox="0 0 959.76 463.78" enable-background="new 0 0 959.76 463.78" xml:space="preserve">
<text transform="matrix(1 0 0 1 76.7614 199.1235)" font-family="'GoogleSans-Regular'" font-size="20px">1. The essential four. Where to? When? </text>
<text transform="matrix(1 0 0 1 76.7614 221.9234)" font-family="'GoogleSans-Regular'" font-size="20px">How many? Class?</text>
<text transform="matrix(1 0 0 1 76.7614 263.124)" font-family="'GoogleSans-Regular'" font-size="20px">2. Choose a flight based on the time,</text>
<text transform="matrix(1 0 0 1 76.7614 285.924)" font-family="'GoogleSans-Regular'" font-size="20px">airline, price and number of hops, and</text>
<text transform="matrix(1 0 0 1 76.7614 308.724)" font-family="'GoogleSans-Regular'" font-size="20px">few others.</text>
<text transform="matrix(1 0 0 1 76.7614 350.1235)" font-family="'GoogleSans-Regular'" font-size="20px">3. Pick a seat before checking in. (paid or</text>
<text transform="matrix(1 0 0 1 76.7614 372.9235)" font-family="'GoogleSans-Regular'" font-size="20px">free based on the airlines)</text>
<text transform="matrix(1 0 0 1 526.7609 199.1235)" font-family="'GoogleSans-Regular'" font-size="20px">5. Pick, if required, a suitable</text>
<text transform="matrix(1 0 0 1 526.7609 221.9234)" font-family="'GoogleSans-Regular'" font-size="20px">in-flight meal.</text>
<text transform="matrix(1 0 0 1 526.7611 263.124)" font-family="'GoogleSans-Regular'" font-size="20px">6. Give appropriate personal detiails - in</text>
<text transform="matrix(1 0 0 1 526.7611 285.924)" font-family="'GoogleSans-Regular'" font-size="20px">particular for unregistered passengers.</text>
<text transform="matrix(1 0 0 1 526.7609 331.1235)" font-family="'GoogleSans-Regular'" font-size="20px">7. Pay for the ticket before reaching</text>
<text transform="matrix(1 0 0 1 526.7609 353.9235)" font-family="'GoogleSans-Regular'" font-size="20px">confirmation page.</text>
<text transform="matrix(1 0 0 1 76.7616 413.124)" font-family="'GoogleSans-Regular'" font-size="20px">4. Go through several premium upgrades</text>
<text transform="matrix(1 0 0 1 76.7616 435.924)" font-family="'GoogleSans-Regular'" font-size="20px">and special features targetted at passengers.</text>
<g>
	<text transform="matrix(1 0 0 1 147.0089 71.3918)" fill="#241312" font-family="'Intro'" font-size="66.5682px">Necessary</text>
	<text transform="matrix(1 0 0 1 147.0091 126.321)" fill="#241312" font-family="'Intro'" font-size="66.5682px">STEPS</text>
	<text transform="matrix(1 0 0 1 45.615 126.321)" fill="#E13A2B" font-family="'Intro-Inline'" font-size="166.8691px">2</text>
</g>
<polygon opacity="0.7" fill="#FFFFFF" enable-background="new    " points="903.753,159.47 903.753,307.12 496.243,307.12 
	496.243,454.47 62.263,454.47 62.263,238.47 469.763,238.47 469.763,159.47 "/>
<text transform="matrix(1 0 0 1 183.0225 350.123)" fill="#241312" font-family="'Intro'" font-size="25px">Predicted</text>
<text transform="matrix(1 0 0 1 183.5345 371.3589)" fill="#241312" font-family="'Intro'" font-size="25px">outcomes</text>
<g opacity="0.8">
	<text transform="matrix(1 0 0 1 633.0225 236.8904)" fill="#241312" font-family="'Intro'" font-size="25px">Predicted</text>
	<text transform="matrix(1 0 0 1 633.5345 258.1264)" fill="#241312" font-family="'Intro'" font-size="25px">outcomes</text>
</g>
</svg>
