<?xml version="1.0" encoding="utf-8"?>
<!-- Generator: Adobe Illustrator 23.0.3, SVG Export Plug-In . SVG Version: 6.00 Build 0)  -->
<svg version="1.1" id="Layer_1" xmlns="http://www.w3.org/2000/svg" xmlns:xlink="http://www.w3.org/1999/xlink" x="0px" y="0px"
	 viewBox="0 0 959.76 540" enable-background="new 0 0 959.76 540" xml:space="preserve">
<g>
	<path fill="#954020" d="M711.454,497.945H249.036c-11.552,0-20.917-9.365-20.917-20.917v-15.57h504.251v15.57
		C732.371,488.58,723.006,497.945,711.454,497.945z"/>
	<path fill="#CD7028" d="M735.559,444.674H224.201c-6.299,0-11.406,5.107-11.406,11.406v5.378h534.171v-5.378
		C746.965,449.78,741.859,444.674,735.559,444.674z"/>
	<rect x="212.795" y="454.89" fill="#B05B27" width="534.171" height="6.568"/>
	<rect x="228.119" y="461.458" fill="#80321A" width="504.251" height="16.054"/>
	
		<line fill="none" stroke="#5F250F" stroke-width="4.3784" stroke-linecap="round" stroke-linejoin="round" stroke-miterlimit="10" x1="302.066" y1="479.215" x2="405.203" y2="479.215"/>
	
		<line fill="none" stroke="#5F250F" stroke-width="4.3784" stroke-linecap="round" stroke-linejoin="round" stroke-miterlimit="10" x1="277.255" y1="469.485" x2="324.688" y2="469.485"/>
	
		<line fill="none" stroke="#5F250F" stroke-width="4.3784" stroke-linecap="round" stroke-linejoin="round" stroke-miterlimit="10" x1="334.661" y1="469.485" x2="352.175" y2="469.485"/>
	
		<line fill="none" stroke="#5F250F" stroke-width="4.3784" stroke-linecap="round" stroke-linejoin="round" stroke-miterlimit="10" x1="398.392" y1="469.485" x2="416.149" y2="469.485"/>
	
		<line fill="none" stroke="#5F250F" stroke-width="4.3784" stroke-linecap="round" stroke-linejoin="round" stroke-miterlimit="10" x1="603.936" y1="469.728" x2="654.531" y2="469.728"/>
	
		<line fill="none" stroke="#5F250F" stroke-width="4.3784" stroke-linecap="round" stroke-linejoin="round" stroke-miterlimit="10" x1="625.828" y1="478.972" x2="673.018" y2="478.972"/>
	
		<line fill="none" stroke="#5F250F" stroke-width="4.3784" stroke-linecap="round" stroke-linejoin="round" stroke-miterlimit="10" x1="680.559" y1="478.972" x2="698.802" y2="478.972"/>
	<path fill="none" d="M556.138,479.249c-9.456,0-17.149,7.693-17.149,17.149c0,0.522,0.027,1.037,0.073,1.547h4.593
		c-0.063-0.508-0.105-1.022-0.105-1.547c0-6.941,5.647-12.588,12.588-12.588s12.588,5.647,12.588,12.588
		c0,0.525-0.042,1.039-0.105,1.547h4.593c0.046-0.51,0.073-1.025,0.073-1.547C573.287,486.942,565.594,479.249,556.138,479.249z"/>
	<path fill="none" d="M556.138,488.918c-4.124,0-7.48,3.355-7.48,7.48c0,0.53,0.057,1.047,0.163,1.547h14.634
		c0.105-0.499,0.163-1.016,0.163-1.547C563.618,492.274,560.263,488.918,556.138,488.918z"/>
	<path fill="#7B2E18" d="M538.989,496.398c0-9.456,7.693-17.149,17.149-17.149s17.149,7.693,17.149,17.149
		c0,0.522-0.027,1.037-0.073,1.547h5.122c0.035-0.512,0.06-1.026,0.06-1.547c0-12.273-9.984-22.257-22.257-22.257
		s-22.257,9.984-22.257,22.257c0,0.521,0.024,1.035,0.06,1.547h5.122C539.017,497.435,538.989,496.92,538.989,496.398z"/>
	<path fill="#7B2E18" d="M548.658,496.398c0-4.124,3.355-7.48,7.48-7.48s7.48,3.355,7.48,7.48c0,0.53-0.057,1.047-0.163,1.547h5.166
		c0.063-0.508,0.105-1.022,0.105-1.547c0-6.941-5.647-12.588-12.588-12.588s-12.588,5.647-12.588,12.588
		c0,0.525,0.042,1.039,0.105,1.547h5.166C548.716,497.445,548.658,496.928,548.658,496.398z"/>
	<path fill="#CECFD7" d="M540.395,352.726h-120.3c-8.56,0-15.5,6.94-15.5,15.5v76.447h151.3v-76.447
		C555.895,359.666,548.955,352.726,540.395,352.726z"/>
	<g>
		<defs>
			<path id="SVGID_3_" d="M644.501,400.4H315.993l69.077-69.077c5.918-5.918,13.953-9.246,22.323-9.246h145.7
				c8.377,0,16.405,3.328,22.33,9.246L644.501,400.4z"/>
		</defs>
		<clipPath id="SVGID_2_">
			<use xlink:href="#SVGID_3_"  overflow="visible"/>
		</clipPath>
		<g clip-path="url(#SVGID_2_)">
			<rect x="582.046" y="377.781" fill="#241312" width="22.622" height="22.622"/>
			<rect x="582.046" y="332.537" fill="#241312" width="22.622" height="22.622"/>
			<rect x="627.29" y="377.781" fill="#241312" width="22.622" height="22.622"/>
			<rect x="604.668" y="377.781" fill="#A31E22" width="22.622" height="22.622"/>
			<rect x="582.046" y="355.159" fill="#A31E22" width="22.622" height="22.622"/>
			<rect x="627.29" y="355.159" fill="#A31E22" width="22.622" height="22.622"/>
			<rect x="604.668" y="355.159" fill="#E13A2B" width="22.622" height="22.622"/>
			<rect x="559.424" y="355.159" fill="#E13A2B" width="22.622" height="22.622"/>
			<rect x="604.668" y="332.537" fill="#A31E22" width="22.622" height="22.622"/>
			<rect x="559.424" y="377.781" fill="#A31E22" width="22.622" height="22.622"/>
			<rect x="559.424" y="332.537" fill="#A31E22" width="22.622" height="22.622"/>
			<rect x="627.29" y="332.537" fill="#241312" width="22.622" height="22.622"/>
			<rect x="491.558" y="377.781" fill="#241312" width="22.622" height="22.622"/>
			<rect x="491.558" y="332.537" fill="#241312" width="22.622" height="22.622"/>
			<rect x="536.802" y="377.781" fill="#241312" width="22.622" height="22.622"/>
			<rect x="514.18" y="377.781" fill="#A31E22" width="22.622" height="22.622"/>
			<rect x="491.558" y="355.159" fill="#A31E22" width="22.622" height="22.622"/>
			<rect x="536.802" y="355.159" fill="#A31E22" width="22.622" height="22.622"/>
			<rect x="514.18" y="355.159" fill="#E13A2B" width="22.622" height="22.622"/>
			<rect x="468.936" y="355.159" fill="#E13A2B" width="22.622" height="22.622"/>
			<rect x="514.18" y="332.537" fill="#A31E22" width="22.622" height="22.622"/>
			<rect x="468.936" y="377.781" fill="#A31E22" width="22.622" height="22.622"/>
			<rect x="468.936" y="332.537" fill="#A31E22" width="22.622" height="22.622"/>
			<rect x="536.802" y="332.537" fill="#241312" width="22.622" height="22.622"/>
			<rect x="401.07" y="377.781" fill="#241312" width="22.622" height="22.622"/>
			<rect x="401.07" y="332.537" fill="#241312" width="22.622" height="22.622"/>
			<rect x="446.314" y="377.781" fill="#241312" width="22.622" height="22.622"/>
			<rect x="423.692" y="377.781" fill="#A31E22" width="22.622" height="22.622"/>
			<rect x="401.07" y="355.159" fill="#A31E22" width="22.622" height="22.622"/>
			<rect x="446.314" y="355.159" fill="#A31E22" width="22.622" height="22.622"/>
			<rect x="423.692" y="355.159" fill="#E13A2B" width="22.622" height="22.622"/>
			<rect x="378.448" y="355.159" fill="#E13A2B" width="22.622" height="22.622"/>
			<rect x="423.692" y="332.537" fill="#A31E22" width="22.622" height="22.622"/>
			<rect x="378.448" y="377.781" fill="#A31E22" width="22.622" height="22.622"/>
			<rect x="378.448" y="332.537" fill="#A31E22" width="22.622" height="22.622"/>
			<rect x="446.314" y="332.537" fill="#241312" width="22.622" height="22.622"/>
			<rect x="310.582" y="377.781" fill="#241312" width="22.622" height="22.622"/>
			<rect x="310.582" y="332.537" fill="#241312" width="22.622" height="22.622"/>
			<rect x="355.826" y="377.781" fill="#241312" width="22.622" height="22.622"/>
			<rect x="333.204" y="377.781" fill="#A31E22" width="22.622" height="22.622"/>
			<rect x="310.582" y="355.159" fill="#A31E22" width="22.622" height="22.622"/>
			<rect x="355.826" y="355.159" fill="#A31E22" width="22.622" height="22.622"/>
			<rect x="333.204" y="355.159" fill="#E13A2B" width="22.622" height="22.622"/>
			<rect x="333.204" y="332.537" fill="#A31E22" width="22.622" height="22.622"/>
			<rect x="355.826" y="332.537" fill="#241312" width="22.622" height="22.622"/>
			<rect x="582.046" y="287.293" fill="#241312" width="22.622" height="22.622"/>
			<rect x="582.046" y="309.915" fill="#A31E22" width="22.622" height="22.622"/>
			<rect x="627.29" y="309.915" fill="#A31E22" width="22.622" height="22.622"/>
			<rect x="604.668" y="309.915" fill="#E13A2B" width="22.622" height="22.622"/>
			<rect x="559.424" y="309.915" fill="#E13A2B" width="22.622" height="22.622"/>
			<rect x="604.668" y="287.293" fill="#A31E22" width="22.622" height="22.622"/>
			<rect x="559.424" y="287.293" fill="#A31E22" width="22.622" height="22.622"/>
			<rect x="627.29" y="287.293" fill="#241312" width="22.622" height="22.622"/>
			<rect x="491.558" y="287.293" fill="#241312" width="22.622" height="22.622"/>
			<rect x="491.558" y="309.915" fill="#A31E22" width="22.622" height="22.622"/>
			<rect x="536.802" y="309.915" fill="#A31E22" width="22.622" height="22.622"/>
			<rect x="514.18" y="309.915" fill="#E13A2B" width="22.622" height="22.622"/>
			<rect x="468.936" y="309.915" fill="#E13A2B" width="22.622" height="22.622"/>
			<rect x="514.18" y="287.293" fill="#A31E22" width="22.622" height="22.622"/>
			<rect x="468.936" y="287.293" fill="#A31E22" width="22.622" height="22.622"/>
			<rect x="536.802" y="287.293" fill="#241312" width="22.622" height="22.622"/>
			<rect x="401.07" y="287.293" fill="#241312" width="22.622" height="22.622"/>
			<rect x="401.07" y="309.915" fill="#A31E22" width="22.622" height="22.622"/>
			<rect x="446.314" y="309.915" fill="#A31E22" width="22.622" height="22.622"/>
			<rect x="423.692" y="309.915" fill="#E13A2B" width="22.622" height="22.622"/>
			<rect x="378.448" y="309.915" fill="#E13A2B" width="22.622" height="22.622"/>
			<rect x="423.692" y="287.293" fill="#A31E22" width="22.622" height="22.622"/>
			<rect x="378.448" y="287.293" fill="#A31E22" width="22.622" height="22.622"/>
			<rect x="446.314" y="287.293" fill="#241312" width="22.622" height="22.622"/>
			<rect x="310.582" y="287.293" fill="#241312" width="22.622" height="22.622"/>
			<rect x="310.582" y="309.915" fill="#A31E22" width="22.622" height="22.622"/>
			<rect x="355.826" y="309.915" fill="#A31E22" width="22.622" height="22.622"/>
			<rect x="333.204" y="309.915" fill="#E13A2B" width="22.622" height="22.622"/>
			<rect x="333.204" y="287.293" fill="#A31E22" width="22.622" height="22.622"/>
			<rect x="355.826" y="287.293" fill="#241312" width="22.622" height="22.622"/>
		</g>
	</g>
	<path fill="#AFB0B5" d="M543.395,356.132h-126.3c-6.904,0-12.5,5.596-12.5,12.5v76.042h151.3v-76.042
		C555.895,361.728,550.298,356.132,543.395,356.132z"/>
	<path fill="#E13A2B" d="M644.498,400.403l9.031,9.137c0,0,17.195,16.328,3.01,35.134h-42.994v-44.271H644.498z"/>
	<path fill="#A31E22" d="M568.155,400.403v44.271h71.15v-21.678c0-12.478-10.115-22.593-22.593-22.593H568.155z"/>
	<path fill="#241312" d="M564.712,400.403v44.271h59.754v-21.678c0-12.478-10.115-22.593-22.593-22.593H564.712z"/>
	<path fill="#FACCA2" d="M555.895,400.403v44.271h62.271v-21.649c0-12.494-10.128-22.622-22.622-22.622H555.895z"/>
	<polygon fill="#F6AF7A" points="555.895,400.403 555.895,444.674 618.166,444.674 618.166,428.376 559.543,428.376 
		559.543,400.403 	"/>
	<circle fill="#143C1F" cx="631.301" cy="438.197" r="3.588"/>
	<circle fill="#FFFFFF" cx="631.301" cy="438.197" r="2.25"/>
	<path fill="#E13A2B" d="M315.992,400.403l-9.031,9.137c0,0-17.195,16.328-3.01,35.134h42.994v-44.271H315.992z"/>
	<path fill="#A31E22" d="M392.335,400.403v44.271h-71.15v-21.678c0-12.478,10.115-22.593,22.593-22.593H392.335z"/>
	<path fill="#241312" d="M395.777,400.403v44.271h-59.754v-21.678c0-12.478,10.115-22.593,22.593-22.593H395.777z"/>
	<path fill="#FACCA2" d="M404.595,400.403v44.271h-62.271v-21.649c0-12.494,10.128-22.622,22.622-22.622H404.595z"/>
	<polygon fill="#F6AF7A" points="404.595,400.403 404.595,444.674 342.324,444.674 342.324,428.376 400.946,428.376 
		400.946,400.403 	"/>
	<circle fill="#143C1F" cx="329.188" cy="438.197" r="3.588"/>
	<circle fill="#FFFFFF" cx="329.188" cy="438.197" r="2.25"/>
	<rect x="468.934" y="317.151" fill="#E13A2B" width="22.622" height="15.142"/>
	<rect x="478.762" y="317.151" fill="#8D191C" width="2.97" height="38.98"/>
	<polygon fill="#8D191C" points="481.732,317.151 516.577,317.151 516.577,341.78 	"/>
	<polygon fill="#8D191C" points="478.762,317.151 443.917,317.151 443.917,341.78 	"/>
	<circle fill="#143C1F" cx="473.905" cy="333.662" r="3.588"/>
	<circle fill="#FFFFFF" cx="473.905" cy="333.662" r="2.25"/>
	<rect x="450.599" y="232.136" fill="#FACCA2" width="59.292" height="84.832"/>
	<rect x="476.323" y="284.678" fill="#F6AF7A" width="33.568" height="32.291"/>
	<path fill="#F6AF7A" d="M449.923,251.475h0.676v20.98h-0.676c-2.448,0-4.432-1.984-4.432-4.432v-12.115
		C445.491,253.459,447.475,251.475,449.923,251.475z"/>
	<path fill="#F6AF7A" d="M510.566,271.542h-0.676v-20.98h0.676c2.448,0,4.433,1.985,4.433,4.433v12.115
		C514.999,269.558,513.014,271.542,510.566,271.542z"/>
	<polygon fill="#26241F" points="509.803,261.968 509.803,294.712 492.107,312.59 468.295,312.59 450.599,294.712 450.599,261.961 
		459.035,270.404 459.035,276.651 461.932,279.548 466.61,274.87 493.793,274.87 498.463,279.548 501.36,276.651 501.36,270.404 	
		"/>
	<polygon fill="#F2A873" points="474.485,256.522 485.917,256.522 480.338,262.101 	"/>
	<path fill="#F5A058" d="M486.885,285.468h-13.368c-0.641,0-1.161-0.52-1.161-1.161v-0.354c0-0.641,0.52-1.161,1.161-1.161h13.368
		c0.641,0,1.161,0.52,1.161,1.161v0.354C488.046,284.949,487.526,285.468,486.885,285.468z"/>
	<path fill="#F5A058" d="M483.286,270.813h-6.17c-1.923,0-3.483,1.559-3.483,3.483v0.531h13.135v-0.531
		C486.769,272.372,485.21,270.813,483.286,270.813z"/>
	<path fill="#F6AF7A" d="M480.531,278.414h-0.66c-1.195,0-2.163-0.969-2.163-2.163v-19.729h4.987v19.729
		C482.694,277.446,481.726,278.414,480.531,278.414z"/>
	<path fill="#171816" d="M475.215,256.522h-15.81c-2.419,0-4.38-1.961-4.38-4.38v-0.668h15.81c2.419,0,4.38,1.961,4.38,4.38V256.522
		z"/>
	<path fill="#171816" d="M505.377,251.475h-15.81c-2.419,0-4.38,1.961-4.38,4.38v0.668h15.81c2.419,0,4.38-1.961,4.38-4.38V251.475z
		"/>
	<path fill="#F09F69" d="M471.427,259.312h-7.263c-1.286,0-2.328-1.042-2.328-2.328v-0.462h11.919v0.462
		C473.755,258.269,472.713,259.312,471.427,259.312z"/>
	<path fill="#F09F69" d="M496.238,259.312h-7.263c-1.286,0-2.328-1.042-2.328-2.328v-0.462h11.919v0.462
		C498.566,258.269,497.524,259.312,496.238,259.312z"/>
	<polygon fill="#4D4F42" points="450.599,245.089 450.599,212.981 461.91,227.576 	"/>
	<polygon fill="#4D4F42" points="509.877,216.629 509.877,245.089 498.566,230.494 	"/>
	<polygon fill="#4D4F42" points="450.477,229.035 445.491,229.035 461.424,218.454 461.424,229.035 	"/>
	<path fill="#26241F" d="M450.647,229.035c0,0,4.014-16.966,23.169-22.622c19.156-5.655,36.061,7.297,36.061,10.216
		c0,0-4.707,21.201-20.055,28.46c-13.5,6.385-28.595,3.831-33.703,1.277c0,0,19.095,0.547,26.575-7.845
		C482.694,238.522,465.424,244.36,450.647,229.035z"/>
	<circle fill="#F9FBFC" cx="480.247" cy="405.511" r="13.135"/>
</g>
<path fill="none" stroke="#241312" stroke-width="2" stroke-linecap="round" stroke-linejoin="round" stroke-miterlimit="10" d="
	M532.421,287.492c23.119,16.715,49.787,12.203,49.787,12.203"/>
<polyline fill="none" stroke="#241312" stroke-width="2" stroke-linecap="round" stroke-linejoin="round" stroke-miterlimit="10" points="
	544.816,285.468 532.421,287.492 534.798,298.314 "/>
<text transform="matrix(1 0 0 1 581.9868 288.514)"><tspan x="0" y="0" font-family="'Architext'" font-size="24px">For representational </tspan><tspan x="28.494" y="16.4" font-family="'Architext'" font-size="24px">purposes only</tspan></text>
<text transform="matrix(1 0 0 1 398.0888 61.5394)" font-family="'GoogleSans-Regular'" font-size="36px">My Father</text>
<text transform="matrix(1 0 0 1 143.1855 100.1803)"><tspan x="0" y="0" font-family="'GoogleSans-Regular'" font-size="20px">He books 10 flight tickets on average for my brother and I, every semester.</tspan><tspan x="24.999" y="22.8" font-family="'GoogleSans-Regular'" font-size="20px">All of these constitute round-trip journeys from the same two places.</tspan></text>
<text transform="matrix(1 0 0 1 168.5561 158.7806)"><tspan x="0" y="0" font-family="'GoogleSans-Regular'" font-size="20px">And yet... even with the experience of booking tickets several times...</tspan><tspan x="28.619" y="22.8" font-family="'GoogleSans-Regular'" font-size="20px">It takes him at least </tspan><tspan x="206.896" y="22.8" font-family="'GoogleSans-Bold'" font-size="20px">30 minutes </tspan><tspan x="319.055" y="22.8" font-family="'GoogleSans-Regular'" font-size="20px">to book a ticket in each sitting.</tspan></text>
</svg>
