<?xml version="1.0" encoding="utf-8"?>
<!-- Generator: Adobe Illustrator 23.0.3, SVG Export Plug-In . SVG Version: 6.00 Build 0)  -->
<svg version="1.1" id="Layer_1" xmlns="http://www.w3.org/2000/svg" xmlns:xlink="http://www.w3.org/1999/xlink" x="0px" y="0px"
	 viewBox="0 0 959.76 540" enable-background="new 0 0 959.76 540" xml:space="preserve">
<rect fill="#E55851" width="959.76" height="540"/>
<g>
	<defs>
		<rect id="SVGID_5_" width="959.76" height="540"/>
	</defs>
	<clipPath id="SVGID_2_">
		<use xlink:href="#SVGID_5_"  overflow="visible"/>
	</clipPath>
	<g opacity="0.4" clip-path="url(#SVGID_2_)">
		<path fill="none" stroke="#ECF2FA" stroke-width="2" stroke-linecap="round" stroke-linejoin="round" stroke-miterlimit="10" d="
			M-0.24,48.405l-21.506-42.69c-2.104-4.172-5.478-7.547-9.642-9.649l-42.716-21.524l21.646,42.843
			c2.106,4.167,5.491,7.545,9.653,9.639l42.565,21.383L-0.24,48.405z"/>
		<path fill="none" stroke="#ECF2FA" stroke-width="2" stroke-linecap="round" stroke-linejoin="round" stroke-miterlimit="10" d="
			M-0.241-25.458l-42.69,21.506c-4.172,2.104-7.547,5.478-9.649,9.642l-21.524,42.716l42.843-21.646
			c4.167-2.106,7.545-5.491,9.639-9.653L-0.24-25.457L-0.241-25.458z"/>
		<path fill="none" stroke="#ECF2FA" stroke-width="2" stroke-linecap="round" stroke-linejoin="round" stroke-miterlimit="10" d="
			M73.625,48.405L52.119,5.715c-2.104-4.172-5.478-7.547-9.642-9.649L-0.24-25.458l21.646,42.843
			c2.106,4.167,5.491,7.545,9.653,9.639l42.565,21.383L73.625,48.405z"/>
		<path fill="none" stroke="#ECF2FA" stroke-width="2" stroke-linecap="round" stroke-linejoin="round" stroke-miterlimit="10" d="
			M73.624-25.458L30.934-3.952c-4.172,2.104-7.547,5.478-9.649,9.642L-0.24,48.406L42.603,26.76
			c4.167-2.106,7.545-5.491,9.639-9.653l21.383-42.565L73.624-25.458z"/>
		<path fill="none" stroke="#ECF2FA" stroke-width="2" stroke-linecap="round" stroke-linejoin="round" stroke-miterlimit="10" d="
			M147.49,48.405l-21.506-42.69c-2.104-4.172-5.478-7.547-9.642-9.649L73.625-25.458l21.646,42.843
			c2.106,4.167,5.491,7.545,9.653,9.639l42.565,21.383L147.49,48.405z"/>
		<path fill="none" stroke="#ECF2FA" stroke-width="2" stroke-linecap="round" stroke-linejoin="round" stroke-miterlimit="10" d="
			M147.488-25.458l-42.69,21.506c-4.172,2.104-7.547,5.478-9.649,9.642L73.625,48.406l42.843-21.646
			c4.167-2.106,7.545-5.491,9.639-9.653l21.383-42.565L147.488-25.458z"/>
		<path fill="none" stroke="#ECF2FA" stroke-width="2" stroke-linecap="round" stroke-linejoin="round" stroke-miterlimit="10" d="
			M221.354,48.405l-21.506-42.69c-2.104-4.172-5.478-7.547-9.642-9.649L147.49-25.458l21.646,42.843
			c2.106,4.167,5.491,7.545,9.653,9.639l42.565,21.383L221.354,48.405z"/>
		<path fill="none" stroke="#ECF2FA" stroke-width="2" stroke-linecap="round" stroke-linejoin="round" stroke-miterlimit="10" d="
			M221.353-25.458l-42.69,21.506c-4.172,2.104-7.547,5.478-9.649,9.642L147.49,48.406l42.843-21.646
			c4.167-2.106,7.545-5.491,9.639-9.653l21.383-42.565L221.353-25.458z"/>
		<path fill="none" stroke="#ECF2FA" stroke-width="2" stroke-linecap="round" stroke-linejoin="round" stroke-miterlimit="10" d="
			M295.219,48.405l-21.506-42.69c-2.104-4.172-5.478-7.547-9.642-9.649l-42.716-21.524L243,17.385
			c2.106,4.167,5.491,7.545,9.653,9.639l42.565,21.383L295.219,48.405z"/>
		<path fill="none" stroke="#ECF2FA" stroke-width="2" stroke-linecap="round" stroke-linejoin="round" stroke-miterlimit="10" d="
			M295.217-25.458l-42.69,21.506c-4.172,2.104-7.547,5.478-9.649,9.642l-21.524,42.716l42.843-21.646
			c4.167-2.106,7.545-5.491,9.639-9.653l21.383-42.565L295.217-25.458z"/>
		<path fill="none" stroke="#ECF2FA" stroke-width="2" stroke-linecap="round" stroke-linejoin="round" stroke-miterlimit="10" d="
			M-0.24,122.27l-21.506-42.69c-2.104-4.172-5.478-7.547-9.642-9.649l-42.716-21.524l21.646,42.843
			c2.106,4.167,5.491,7.545,9.653,9.639l42.565,21.383L-0.24,122.27z"/>
		<path fill="none" stroke="#ECF2FA" stroke-width="2" stroke-linecap="round" stroke-linejoin="round" stroke-miterlimit="10" d="
			M-0.241,48.406l-42.69,21.506c-4.172,2.104-7.547,5.478-9.649,9.642l-21.524,42.716l42.843-21.646
			c4.167-2.106,7.545-5.491,9.639-9.653L-0.24,48.407L-0.241,48.406z"/>
		<path fill="none" stroke="#ECF2FA" stroke-width="2" stroke-linecap="round" stroke-linejoin="round" stroke-miterlimit="10" d="
			M73.625,122.27L52.119,79.58c-2.104-4.172-5.478-7.547-9.642-9.649L-0.24,48.406l21.646,42.843
			c2.106,4.167,5.491,7.545,9.653,9.639l42.565,21.383L73.625,122.27z"/>
		<path fill="none" stroke="#ECF2FA" stroke-width="2" stroke-linecap="round" stroke-linejoin="round" stroke-miterlimit="10" d="
			M73.624,48.406l-42.69,21.506c-4.172,2.104-7.547,5.478-9.649,9.642L-0.24,122.271l42.843-21.646
			c4.167-2.106,7.545-5.491,9.639-9.653l21.383-42.565L73.624,48.406z"/>
		<path fill="none" stroke="#ECF2FA" stroke-width="2" stroke-linecap="round" stroke-linejoin="round" stroke-miterlimit="10" d="
			M147.49,122.27l-21.506-42.69c-2.104-4.172-5.478-7.547-9.642-9.649L73.625,48.406l21.646,42.843
			c2.106,4.167,5.491,7.545,9.653,9.639l42.565,21.383L147.49,122.27z"/>
		<path fill="none" stroke="#ECF2FA" stroke-width="2" stroke-linecap="round" stroke-linejoin="round" stroke-miterlimit="10" d="
			M147.488,48.406l-42.69,21.506c-4.172,2.104-7.547,5.478-9.649,9.642l-21.524,42.716l42.843-21.646
			c4.167-2.106,7.545-5.491,9.639-9.653l21.383-42.565L147.488,48.406z"/>
		<path fill="none" stroke="#ECF2FA" stroke-width="2" stroke-linecap="round" stroke-linejoin="round" stroke-miterlimit="10" d="
			M221.354,122.27l-21.506-42.69c-2.104-4.172-5.478-7.547-9.642-9.649L147.49,48.406l21.646,42.843
			c2.106,4.167,5.491,7.545,9.653,9.639l42.565,21.383L221.354,122.27z"/>
		<path fill="none" stroke="#ECF2FA" stroke-width="2" stroke-linecap="round" stroke-linejoin="round" stroke-miterlimit="10" d="
			M221.353,48.406l-42.69,21.506c-4.172,2.104-7.547,5.478-9.649,9.642l-21.524,42.716l42.843-21.646
			c4.167-2.106,7.545-5.491,9.639-9.653l21.383-42.565L221.353,48.406z"/>
		<path fill="none" stroke="#ECF2FA" stroke-width="2" stroke-linecap="round" stroke-linejoin="round" stroke-miterlimit="10" d="
			M295.219,122.27l-21.506-42.69c-2.104-4.172-5.478-7.547-9.642-9.649l-42.716-21.524L243,91.249
			c2.106,4.167,5.491,7.545,9.653,9.639l42.565,21.383L295.219,122.27z"/>
		<path fill="none" stroke="#ECF2FA" stroke-width="2" stroke-linecap="round" stroke-linejoin="round" stroke-miterlimit="10" d="
			M295.217,48.406l-42.69,21.506c-4.172,2.104-7.547,5.478-9.649,9.642l-21.524,42.716l42.843-21.646
			c4.167-2.106,7.545-5.491,9.639-9.653l21.383-42.565L295.217,48.406z"/>
		<path fill="none" stroke="#ECF2FA" stroke-width="2" stroke-linecap="round" stroke-linejoin="round" stroke-miterlimit="10" d="
			M369.083,48.405l-21.506-42.69c-2.104-4.172-5.478-7.547-9.642-9.649l-42.716-21.524l21.646,42.843
			c2.106,4.167,5.491,7.545,9.653,9.639l42.565,21.383L369.083,48.405z"/>
		<path fill="none" stroke="#ECF2FA" stroke-width="2" stroke-linecap="round" stroke-linejoin="round" stroke-miterlimit="10" d="
			M369.082-25.458l-42.69,21.506c-4.172,2.104-7.547,5.478-9.649,9.642l-21.524,42.716l42.843-21.646
			c4.167-2.106,7.545-5.491,9.639-9.653l21.383-42.565L369.082-25.458z"/>
		<path fill="none" stroke="#ECF2FA" stroke-width="2" stroke-linecap="round" stroke-linejoin="round" stroke-miterlimit="10" d="
			M442.948,48.405l-21.506-42.69c-2.104-4.172-5.478-7.547-9.642-9.649l-42.716-21.524l21.646,42.843
			c2.106,4.167,5.491,7.545,9.653,9.639l42.565,21.383L442.948,48.405z"/>
		<path fill="none" stroke="#ECF2FA" stroke-width="2" stroke-linecap="round" stroke-linejoin="round" stroke-miterlimit="10" d="
			M442.947-25.458l-42.69,21.506c-4.172,2.104-7.547,5.478-9.649,9.642l-21.524,42.716l42.843-21.646
			c4.167-2.106,7.545-5.491,9.639-9.653l21.383-42.565L442.947-25.458z"/>
		<path fill="none" stroke="#ECF2FA" stroke-width="2" stroke-linecap="round" stroke-linejoin="round" stroke-miterlimit="10" d="
			M516.812,48.405l-21.506-42.69c-2.104-4.172-5.478-7.547-9.642-9.649l-42.716-21.524l21.646,42.843
			c2.106,4.167,5.491,7.545,9.653,9.639l42.565,21.383L516.812,48.405z"/>
		<path fill="none" stroke="#ECF2FA" stroke-width="2" stroke-linecap="round" stroke-linejoin="round" stroke-miterlimit="10" d="
			M516.811-25.458l-42.69,21.506c-4.172,2.104-7.547,5.478-9.649,9.642l-21.524,42.716L485.79,26.76
			c4.167-2.106,7.545-5.491,9.639-9.653l21.383-42.565L516.811-25.458z"/>
		<path fill="none" stroke="#ECF2FA" stroke-width="2" stroke-linecap="round" stroke-linejoin="round" stroke-miterlimit="10" d="
			M590.677,48.405l-21.506-42.69c-2.104-4.172-5.478-7.547-9.642-9.649l-42.716-21.524l21.646,42.843
			c2.106,4.167,5.491,7.545,9.653,9.639l42.565,21.383L590.677,48.405z"/>
		<path fill="none" stroke="#ECF2FA" stroke-width="2" stroke-linecap="round" stroke-linejoin="round" stroke-miterlimit="10" d="
			M590.676-25.458l-42.69,21.506c-4.172,2.104-7.547,5.478-9.649,9.642l-21.524,42.716l42.843-21.646
			c4.167-2.106,7.545-5.491,9.639-9.653l21.383-42.565L590.676-25.458z"/>
		<path fill="none" stroke="#ECF2FA" stroke-width="2" stroke-linecap="round" stroke-linejoin="round" stroke-miterlimit="10" d="
			M664.541,48.405l-21.506-42.69c-2.104-4.172-5.478-7.547-9.642-9.649l-42.716-21.524l21.646,42.843
			c2.106,4.167,5.491,7.545,9.653,9.639l42.565,21.383L664.541,48.405z"/>
		<path fill="none" stroke="#ECF2FA" stroke-width="2" stroke-linecap="round" stroke-linejoin="round" stroke-miterlimit="10" d="
			M664.54-25.458L621.85-3.952c-4.172,2.104-7.547,5.478-9.649,9.642l-21.524,42.716L633.52,26.76
			c4.167-2.106,7.545-5.491,9.639-9.653l21.383-42.565L664.54-25.458z"/>
		<path fill="none" stroke="#ECF2FA" stroke-width="2" stroke-linecap="round" stroke-linejoin="round" stroke-miterlimit="10" d="
			M369.083,122.27l-21.506-42.69c-2.104-4.172-5.478-7.547-9.642-9.649l-42.716-21.524l21.646,42.843
			c2.106,4.167,5.491,7.545,9.653,9.639l42.565,21.383L369.083,122.27z"/>
		<path fill="none" stroke="#ECF2FA" stroke-width="2" stroke-linecap="round" stroke-linejoin="round" stroke-miterlimit="10" d="
			M369.082,48.406l-42.69,21.506c-4.172,2.104-7.547,5.478-9.649,9.642l-21.524,42.716l42.843-21.646
			c4.167-2.106,7.545-5.491,9.639-9.653l21.383-42.565L369.082,48.406z"/>
		<path fill="none" stroke="#ECF2FA" stroke-width="2" stroke-linecap="round" stroke-linejoin="round" stroke-miterlimit="10" d="
			M442.948,122.27l-21.506-42.69c-2.104-4.172-5.478-7.547-9.642-9.649l-42.716-21.524l21.646,42.843
			c2.106,4.167,5.491,7.545,9.653,9.639l42.565,21.383L442.948,122.27z"/>
		<path fill="none" stroke="#ECF2FA" stroke-width="2" stroke-linecap="round" stroke-linejoin="round" stroke-miterlimit="10" d="
			M442.947,48.406l-42.69,21.506c-4.172,2.104-7.547,5.478-9.649,9.642l-21.524,42.716l42.843-21.646
			c4.167-2.106,7.545-5.491,9.639-9.653l21.383-42.565L442.947,48.406z"/>
		<path fill="none" stroke="#ECF2FA" stroke-width="2" stroke-linecap="round" stroke-linejoin="round" stroke-miterlimit="10" d="
			M516.812,122.27l-21.506-42.69c-2.104-4.172-5.478-7.547-9.642-9.649l-42.716-21.524l21.646,42.843
			c2.106,4.167,5.491,7.545,9.653,9.639l42.565,21.383L516.812,122.27z"/>
		<path fill="none" stroke="#ECF2FA" stroke-width="2" stroke-linecap="round" stroke-linejoin="round" stroke-miterlimit="10" d="
			M516.811,48.406l-42.69,21.506c-4.172,2.104-7.547,5.478-9.649,9.642l-21.524,42.716l42.843-21.646
			c4.167-2.106,7.545-5.491,9.639-9.653l21.383-42.565L516.811,48.406z"/>
		<path fill="none" stroke="#ECF2FA" stroke-width="2" stroke-linecap="round" stroke-linejoin="round" stroke-miterlimit="10" d="
			M590.677,122.27l-21.506-42.69c-2.104-4.172-5.478-7.547-9.642-9.649l-42.716-21.524l21.646,42.843
			c2.106,4.167,5.491,7.545,9.653,9.639l42.565,21.383L590.677,122.27z"/>
		<path fill="none" stroke="#ECF2FA" stroke-width="2" stroke-linecap="round" stroke-linejoin="round" stroke-miterlimit="10" d="
			M590.676,48.406l-42.69,21.506c-4.172,2.104-7.547,5.478-9.649,9.642l-21.524,42.716l42.843-21.646
			c4.167-2.106,7.545-5.491,9.639-9.653l21.383-42.565L590.676,48.406z"/>
		<path fill="none" stroke="#ECF2FA" stroke-width="2" stroke-linecap="round" stroke-linejoin="round" stroke-miterlimit="10" d="
			M664.541,122.27l-21.506-42.69c-2.104-4.172-5.478-7.547-9.642-9.649l-42.716-21.524l21.646,42.843
			c2.106,4.167,5.491,7.545,9.653,9.639l42.565,21.383L664.541,122.27z"/>
		<path fill="none" stroke="#ECF2FA" stroke-width="2" stroke-linecap="round" stroke-linejoin="round" stroke-miterlimit="10" d="
			M664.54,48.406l-42.69,21.506c-4.172,2.104-7.547,5.478-9.649,9.642l-21.524,42.716l42.843-21.646
			c4.167-2.106,7.545-5.491,9.639-9.653l21.383-42.565L664.54,48.406z"/>
		<path fill="none" stroke="#ECF2FA" stroke-width="2" stroke-linecap="round" stroke-linejoin="round" stroke-miterlimit="10" d="
			M738.406,48.405L716.9,5.715c-2.104-4.172-5.478-7.547-9.642-9.649l-42.716-21.524l21.646,42.843
			c2.106,4.167,5.491,7.545,9.653,9.639l42.565,21.383L738.406,48.405z"/>
		<path fill="none" stroke="#ECF2FA" stroke-width="2" stroke-linecap="round" stroke-linejoin="round" stroke-miterlimit="10" d="
			M738.405-25.458l-42.69,21.506c-4.172,2.104-7.547,5.478-9.649,9.642l-21.524,42.716l42.843-21.646
			c4.167-2.106,7.545-5.491,9.639-9.653l21.383-42.565L738.405-25.458z"/>
		<path fill="none" stroke="#ECF2FA" stroke-width="2" stroke-linecap="round" stroke-linejoin="round" stroke-miterlimit="10" d="
			M812.271,48.405l-21.506-42.69c-2.104-4.172-5.478-7.547-9.642-9.649l-42.716-21.524l21.646,42.843
			c2.106,4.167,5.491,7.545,9.653,9.639l42.565,21.383L812.271,48.405z"/>
		<path fill="none" stroke="#ECF2FA" stroke-width="2" stroke-linecap="round" stroke-linejoin="round" stroke-miterlimit="10" d="
			M812.269-25.458l-42.69,21.506c-4.172,2.104-7.547,5.478-9.649,9.642l-21.524,42.716l42.843-21.646
			c4.167-2.106,7.545-5.491,9.639-9.653l21.383-42.565L812.269-25.458z"/>
		<path fill="none" stroke="#ECF2FA" stroke-width="2" stroke-linecap="round" stroke-linejoin="round" stroke-miterlimit="10" d="
			M886.135,48.405l-21.506-42.69c-2.104-4.172-5.478-7.547-9.642-9.649l-42.716-21.524l21.646,42.843
			c2.106,4.167,5.491,7.545,9.653,9.639l42.565,21.383L886.135,48.405z"/>
		<path fill="none" stroke="#ECF2FA" stroke-width="2" stroke-linecap="round" stroke-linejoin="round" stroke-miterlimit="10" d="
			M886.134-25.458l-42.69,21.506c-4.172,2.104-7.547,5.478-9.649,9.642l-21.524,42.716l42.843-21.646
			c4.167-2.106,7.545-5.491,9.639-9.653l21.383-42.565L886.134-25.458z"/>
		<path fill="none" stroke="#ECF2FA" stroke-width="2" stroke-linecap="round" stroke-linejoin="round" stroke-miterlimit="10" d="
			M960,48.405l-21.506-42.69c-2.104-4.172-5.478-7.547-9.642-9.649l-42.716-21.524l21.646,42.843
			c2.106,4.167,5.491,7.545,9.653,9.639l42.565,21.383L960,48.405z"/>
		<path fill="none" stroke="#ECF2FA" stroke-width="2" stroke-linecap="round" stroke-linejoin="round" stroke-miterlimit="10" d="
			M959.998-25.458l-42.69,21.506c-4.172,2.104-7.547,5.478-9.649,9.642l-21.524,42.716l42.843-21.646
			c4.167-2.106,7.545-5.491,9.639-9.653L960-25.457L959.998-25.458z"/>
		<path fill="none" stroke="#ECF2FA" stroke-width="2" stroke-linecap="round" stroke-linejoin="round" stroke-miterlimit="10" d="
			M1033.864,48.405l-21.506-42.69c-2.104-4.172-5.478-7.547-9.642-9.649L960-25.458l21.646,42.843
			c2.106,4.167,5.491,7.545,9.653,9.639l42.565,21.383L1033.864,48.405z"/>
		<path fill="none" stroke="#ECF2FA" stroke-width="2" stroke-linecap="round" stroke-linejoin="round" stroke-miterlimit="10" d="
			M1033.863-25.458l-42.69,21.506c-4.172,2.104-7.547,5.478-9.649,9.642L960,48.406l42.843-21.646
			c4.167-2.106,7.545-5.491,9.639-9.653l21.383-42.565L1033.863-25.458z"/>
		<path fill="none" stroke="#ECF2FA" stroke-width="2" stroke-linecap="round" stroke-linejoin="round" stroke-miterlimit="10" d="
			M738.406,122.27L716.9,79.58c-2.104-4.172-5.478-7.547-9.642-9.649l-42.716-21.524l21.646,42.843
			c2.106,4.167,5.491,7.545,9.653,9.639l42.565,21.383L738.406,122.27z"/>
		<path fill="none" stroke="#ECF2FA" stroke-width="2" stroke-linecap="round" stroke-linejoin="round" stroke-miterlimit="10" d="
			M738.405,48.406l-42.69,21.506c-4.172,2.104-7.547,5.478-9.649,9.642l-21.524,42.716l42.843-21.646
			c4.167-2.106,7.545-5.491,9.639-9.653l21.383-42.565L738.405,48.406z"/>
		<path fill="none" stroke="#ECF2FA" stroke-width="2" stroke-linecap="round" stroke-linejoin="round" stroke-miterlimit="10" d="
			M812.271,122.27l-21.506-42.69c-2.104-4.172-5.478-7.547-9.642-9.649l-42.716-21.524l21.646,42.843
			c2.106,4.167,5.491,7.545,9.653,9.639l42.565,21.383L812.271,122.27z"/>
		<path fill="none" stroke="#ECF2FA" stroke-width="2" stroke-linecap="round" stroke-linejoin="round" stroke-miterlimit="10" d="
			M812.269,48.406l-42.69,21.506c-4.172,2.104-7.547,5.478-9.649,9.642l-21.524,42.716l42.843-21.646
			c4.167-2.106,7.545-5.491,9.639-9.653l21.383-42.565L812.269,48.406z"/>
		<path fill="none" stroke="#ECF2FA" stroke-width="2" stroke-linecap="round" stroke-linejoin="round" stroke-miterlimit="10" d="
			M886.135,122.27l-21.506-42.69c-2.104-4.172-5.478-7.547-9.642-9.649l-42.716-21.524l21.646,42.843
			c2.106,4.167,5.491,7.545,9.653,9.639l42.565,21.383L886.135,122.27z"/>
		<path fill="none" stroke="#ECF2FA" stroke-width="2" stroke-linecap="round" stroke-linejoin="round" stroke-miterlimit="10" d="
			M886.134,48.406l-42.69,21.506c-4.172,2.104-7.547,5.478-9.649,9.642l-21.524,42.716l42.843-21.646
			c4.167-2.106,7.545-5.491,9.639-9.653l21.383-42.565L886.134,48.406z"/>
		<path fill="none" stroke="#ECF2FA" stroke-width="2" stroke-linecap="round" stroke-linejoin="round" stroke-miterlimit="10" d="
			M960,122.27l-21.506-42.69c-2.104-4.172-5.478-7.547-9.642-9.649l-42.716-21.524l21.646,42.843
			c2.106,4.167,5.491,7.545,9.653,9.639l42.565,21.383L960,122.27z"/>
		<path fill="none" stroke="#ECF2FA" stroke-width="2" stroke-linecap="round" stroke-linejoin="round" stroke-miterlimit="10" d="
			M959.998,48.406l-42.69,21.506c-4.172,2.104-7.547,5.478-9.649,9.642l-21.524,42.716l42.843-21.646
			c4.167-2.106,7.545-5.491,9.639-9.653L960,48.407L959.998,48.406z"/>
		<path fill="none" stroke="#ECF2FA" stroke-width="2" stroke-linecap="round" stroke-linejoin="round" stroke-miterlimit="10" d="
			M1033.864,122.27l-21.506-42.69c-2.104-4.172-5.478-7.547-9.642-9.649L960,48.406l21.646,42.843
			c2.106,4.167,5.491,7.545,9.653,9.639l42.565,21.383L1033.864,122.27z"/>
		<path fill="none" stroke="#ECF2FA" stroke-width="2" stroke-linecap="round" stroke-linejoin="round" stroke-miterlimit="10" d="
			M1033.863,48.406l-42.69,21.506c-4.172,2.104-7.547,5.478-9.649,9.642L960,122.271l42.843-21.646
			c4.167-2.106,7.545-5.491,9.639-9.653l21.383-42.565L1033.863,48.406z"/>
		<path fill="none" stroke="#ECF2FA" stroke-width="2" stroke-linecap="round" stroke-linejoin="round" stroke-miterlimit="10" d="
			M-0.24,196.134l-21.506-42.69c-2.104-4.172-5.478-7.547-9.642-9.649l-42.716-21.524l21.646,42.843
			c2.106,4.167,5.491,7.545,9.653,9.639l42.565,21.383L-0.24,196.134z"/>
		<path fill="none" stroke="#ECF2FA" stroke-width="2" stroke-linecap="round" stroke-linejoin="round" stroke-miterlimit="10" d="
			M-0.241,122.271l-42.69,21.506c-4.172,2.104-7.547,5.478-9.649,9.642l-21.524,42.716l42.843-21.646
			c4.167-2.106,7.545-5.491,9.639-9.653l21.383-42.565L-0.241,122.271z"/>
		<path fill="none" stroke="#ECF2FA" stroke-width="2" stroke-linecap="round" stroke-linejoin="round" stroke-miterlimit="10" d="
			M73.625,196.134l-21.506-42.69c-2.104-4.172-5.478-7.547-9.642-9.649L-0.24,122.271l21.646,42.843
			c2.106,4.167,5.491,7.545,9.653,9.639l42.565,21.383L73.625,196.134z"/>
		<path fill="none" stroke="#ECF2FA" stroke-width="2" stroke-linecap="round" stroke-linejoin="round" stroke-miterlimit="10" d="
			M73.624,122.271l-42.69,21.506c-4.172,2.104-7.547,5.478-9.649,9.642L-0.24,196.135l42.843-21.646
			c4.167-2.106,7.545-5.491,9.639-9.653l21.383-42.565L73.624,122.271z"/>
		<path fill="none" stroke="#ECF2FA" stroke-width="2" stroke-linecap="round" stroke-linejoin="round" stroke-miterlimit="10" d="
			M147.49,196.134l-21.506-42.69c-2.104-4.172-5.478-7.547-9.642-9.649l-42.716-21.524l21.646,42.843
			c2.106,4.167,5.491,7.545,9.653,9.639l42.565,21.383L147.49,196.134z"/>
		<path fill="none" stroke="#ECF2FA" stroke-width="2" stroke-linecap="round" stroke-linejoin="round" stroke-miterlimit="10" d="
			M147.488,122.271l-42.69,21.506c-4.172,2.104-7.547,5.478-9.649,9.642l-21.524,42.716l42.843-21.646
			c4.167-2.106,7.545-5.491,9.639-9.653l21.383-42.565L147.488,122.271z"/>
		<path fill="none" stroke="#ECF2FA" stroke-width="2" stroke-linecap="round" stroke-linejoin="round" stroke-miterlimit="10" d="
			M221.354,196.134l-21.506-42.69c-2.104-4.172-5.478-7.547-9.642-9.649l-42.716-21.524l21.646,42.843
			c2.106,4.167,5.491,7.545,9.653,9.639l42.565,21.383L221.354,196.134z"/>
		<path fill="none" stroke="#ECF2FA" stroke-width="2" stroke-linecap="round" stroke-linejoin="round" stroke-miterlimit="10" d="
			M221.353,122.271l-42.69,21.506c-4.172,2.104-7.547,5.478-9.649,9.642l-21.524,42.716l42.843-21.646
			c4.167-2.106,7.545-5.491,9.639-9.653l21.383-42.565L221.353,122.271z"/>
		<path fill="none" stroke="#ECF2FA" stroke-width="2" stroke-linecap="round" stroke-linejoin="round" stroke-miterlimit="10" d="
			M295.219,196.134l-21.506-42.69c-2.104-4.172-5.478-7.547-9.642-9.649l-42.716-21.524L243,165.114
			c2.106,4.167,5.491,7.545,9.653,9.639l42.565,21.383L295.219,196.134z"/>
		<path fill="none" stroke="#ECF2FA" stroke-width="2" stroke-linecap="round" stroke-linejoin="round" stroke-miterlimit="10" d="
			M295.217,122.271l-42.69,21.506c-4.172,2.104-7.547,5.478-9.649,9.642l-21.524,42.716l42.843-21.646
			c4.167-2.106,7.545-5.491,9.639-9.653l21.383-42.565L295.217,122.271z"/>
		<path fill="none" stroke="#ECF2FA" stroke-width="2" stroke-linecap="round" stroke-linejoin="round" stroke-miterlimit="10" d="
			M-0.24,269.999l-21.506-42.69c-2.104-4.172-5.478-7.547-9.642-9.649l-42.716-21.524l21.646,42.843
			c2.106,4.167,5.491,7.545,9.653,9.639L-0.241,270L-0.24,269.999z"/>
		<path fill="none" stroke="#ECF2FA" stroke-width="2" stroke-linecap="round" stroke-linejoin="round" stroke-miterlimit="10" d="
			M-0.241,196.135l-42.69,21.506c-4.172,2.104-7.547,5.478-9.649,9.642L-74.104,270l42.843-21.646
			c4.167-2.106,7.545-5.491,9.639-9.653l21.383-42.565L-0.241,196.135z"/>
		<path fill="none" stroke="#ECF2FA" stroke-width="2" stroke-linecap="round" stroke-linejoin="round" stroke-miterlimit="10" d="
			M73.625,269.999l-21.506-42.69c-2.104-4.172-5.478-7.547-9.642-9.649L-0.24,196.135l21.646,42.843
			c2.106,4.167,5.491,7.545,9.653,9.639L73.624,270L73.625,269.999z"/>
		<path fill="none" stroke="#ECF2FA" stroke-width="2" stroke-linecap="round" stroke-linejoin="round" stroke-miterlimit="10" d="
			M73.624,196.135l-42.69,21.506c-4.172,2.104-7.547,5.478-9.649,9.642L-0.24,270l42.843-21.646
			c4.167-2.106,7.545-5.491,9.639-9.653l21.383-42.565L73.624,196.135z"/>
		<path fill="none" stroke="#ECF2FA" stroke-width="2" stroke-linecap="round" stroke-linejoin="round" stroke-miterlimit="10" d="
			M147.49,269.999l-21.506-42.69c-2.104-4.172-5.478-7.547-9.642-9.649l-42.716-21.524l21.646,42.843
			c2.106,4.167,5.491,7.545,9.653,9.639L147.489,270L147.49,269.999z"/>
		<path fill="none" stroke="#ECF2FA" stroke-width="2" stroke-linecap="round" stroke-linejoin="round" stroke-miterlimit="10" d="
			M147.488,196.135l-42.69,21.506c-4.172,2.104-7.547,5.478-9.649,9.642L73.625,270l42.843-21.646
			c4.167-2.106,7.545-5.491,9.639-9.653l21.383-42.565L147.488,196.135z"/>
		<path fill="none" stroke="#ECF2FA" stroke-width="2" stroke-linecap="round" stroke-linejoin="round" stroke-miterlimit="10" d="
			M221.354,269.999l-21.506-42.69c-2.104-4.172-5.478-7.547-9.642-9.649l-42.716-21.524l21.646,42.843
			c2.106,4.167,5.491,7.545,9.653,9.639L221.353,270L221.354,269.999z"/>
		<path fill="none" stroke="#ECF2FA" stroke-width="2" stroke-linecap="round" stroke-linejoin="round" stroke-miterlimit="10" d="
			M221.353,196.135l-42.69,21.506c-4.172,2.104-7.547,5.478-9.649,9.642L147.49,270l42.843-21.646
			c4.167-2.106,7.545-5.491,9.639-9.653l21.383-42.565L221.353,196.135z"/>
		<path fill="none" stroke="#ECF2FA" stroke-width="2" stroke-linecap="round" stroke-linejoin="round" stroke-miterlimit="10" d="
			M295.219,269.999l-21.506-42.69c-2.104-4.172-5.478-7.547-9.642-9.649l-42.716-21.524L243,238.978
			c2.106,4.167,5.491,7.545,9.653,9.639L295.218,270L295.219,269.999z"/>
		<path fill="none" stroke="#ECF2FA" stroke-width="2" stroke-linecap="round" stroke-linejoin="round" stroke-miterlimit="10" d="
			M295.217,196.135l-42.69,21.506c-4.172,2.104-7.547,5.478-9.649,9.642L221.354,270l42.843-21.646
			c4.167-2.106,7.545-5.491,9.639-9.653l21.383-42.565L295.217,196.135z"/>
		<path fill="none" stroke="#ECF2FA" stroke-width="2" stroke-linecap="round" stroke-linejoin="round" stroke-miterlimit="10" d="
			M369.083,196.134l-21.506-42.69c-2.104-4.172-5.478-7.547-9.642-9.649l-42.716-21.524l21.646,42.843
			c2.106,4.167,5.491,7.545,9.653,9.639l42.565,21.383L369.083,196.134z"/>
		<path fill="none" stroke="#ECF2FA" stroke-width="2" stroke-linecap="round" stroke-linejoin="round" stroke-miterlimit="10" d="
			M369.082,122.271l-42.69,21.506c-4.172,2.104-7.547,5.478-9.649,9.642l-21.524,42.716l42.843-21.646
			c4.167-2.106,7.545-5.491,9.639-9.653l21.383-42.565L369.082,122.271z"/>
		<path fill="none" stroke="#ECF2FA" stroke-width="2" stroke-linecap="round" stroke-linejoin="round" stroke-miterlimit="10" d="
			M442.948,196.134l-21.506-42.69c-2.104-4.172-5.478-7.547-9.642-9.649l-42.716-21.524l21.646,42.843
			c2.106,4.167,5.491,7.545,9.653,9.639l42.565,21.383L442.948,196.134z"/>
		<path fill="none" stroke="#ECF2FA" stroke-width="2" stroke-linecap="round" stroke-linejoin="round" stroke-miterlimit="10" d="
			M442.947,122.271l-42.69,21.506c-4.172,2.104-7.547,5.478-9.649,9.642l-21.524,42.716l42.843-21.646
			c4.167-2.106,7.545-5.491,9.639-9.653l21.383-42.565L442.947,122.271z"/>
		<path fill="none" stroke="#ECF2FA" stroke-width="2" stroke-linecap="round" stroke-linejoin="round" stroke-miterlimit="10" d="
			M516.812,196.134l-21.506-42.69c-2.104-4.172-5.478-7.547-9.642-9.649l-42.716-21.524l21.646,42.843
			c2.106,4.167,5.491,7.545,9.653,9.639l42.565,21.383L516.812,196.134z"/>
		<path fill="none" stroke="#ECF2FA" stroke-width="2" stroke-linecap="round" stroke-linejoin="round" stroke-miterlimit="10" d="
			M516.811,122.271l-42.69,21.506c-4.172,2.104-7.547,5.478-9.649,9.642l-21.524,42.716l42.843-21.646
			c4.167-2.106,7.545-5.491,9.639-9.653l21.383-42.565L516.811,122.271z"/>
		<path fill="none" stroke="#ECF2FA" stroke-width="2" stroke-linecap="round" stroke-linejoin="round" stroke-miterlimit="10" d="
			M590.677,196.134l-21.506-42.69c-2.104-4.172-5.478-7.547-9.642-9.649l-42.716-21.524l21.646,42.843
			c2.106,4.167,5.491,7.545,9.653,9.639l42.565,21.383L590.677,196.134z"/>
		<path fill="none" stroke="#ECF2FA" stroke-width="2" stroke-linecap="round" stroke-linejoin="round" stroke-miterlimit="10" d="
			M590.676,122.271l-42.69,21.506c-4.172,2.104-7.547,5.478-9.649,9.642l-21.524,42.716l42.843-21.646
			c4.167-2.106,7.545-5.491,9.639-9.653l21.383-42.565L590.676,122.271z"/>
		<path fill="none" stroke="#ECF2FA" stroke-width="2" stroke-linecap="round" stroke-linejoin="round" stroke-miterlimit="10" d="
			M664.541,196.134l-21.506-42.69c-2.104-4.172-5.478-7.547-9.642-9.649l-42.716-21.524l21.646,42.843
			c2.106,4.167,5.491,7.545,9.653,9.639l42.565,21.383L664.541,196.134z"/>
		<path fill="none" stroke="#ECF2FA" stroke-width="2" stroke-linecap="round" stroke-linejoin="round" stroke-miterlimit="10" d="
			M664.54,122.271l-42.69,21.506c-4.172,2.104-7.547,5.478-9.649,9.642l-21.524,42.716l42.843-21.646
			c4.167-2.106,7.545-5.491,9.639-9.653l21.383-42.565L664.54,122.271z"/>
		<path fill="none" stroke="#ECF2FA" stroke-width="2" stroke-linecap="round" stroke-linejoin="round" stroke-miterlimit="10" d="
			M369.083,269.999l-21.506-42.69c-2.104-4.172-5.478-7.547-9.642-9.649l-42.716-21.524l21.646,42.843
			c2.106,4.167,5.491,7.545,9.653,9.639L369.082,270L369.083,269.999z"/>
		<path fill="none" stroke="#ECF2FA" stroke-width="2" stroke-linecap="round" stroke-linejoin="round" stroke-miterlimit="10" d="
			M369.082,196.135l-42.69,21.506c-4.172,2.104-7.547,5.478-9.649,9.642L295.219,270l42.843-21.646
			c4.167-2.106,7.545-5.491,9.639-9.653l21.383-42.565L369.082,196.135z"/>
		<path fill="none" stroke="#ECF2FA" stroke-width="2" stroke-linecap="round" stroke-linejoin="round" stroke-miterlimit="10" d="
			M442.948,269.999l-21.506-42.69c-2.104-4.172-5.478-7.547-9.642-9.649l-42.716-21.524l21.646,42.843
			c2.106,4.167,5.491,7.545,9.653,9.639L442.947,270L442.948,269.999z"/>
		<path fill="none" stroke="#ECF2FA" stroke-width="2" stroke-linecap="round" stroke-linejoin="round" stroke-miterlimit="10" d="
			M442.947,196.135l-42.69,21.506c-4.172,2.104-7.547,5.478-9.649,9.642L369.083,270l42.843-21.646
			c4.167-2.106,7.545-5.491,9.639-9.653l21.383-42.565L442.947,196.135z"/>
		<path fill="none" stroke="#ECF2FA" stroke-width="2" stroke-linecap="round" stroke-linejoin="round" stroke-miterlimit="10" d="
			M516.812,269.999l-21.506-42.69c-2.104-4.172-5.478-7.547-9.642-9.649l-42.716-21.524l21.646,42.843
			c2.106,4.167,5.491,7.545,9.653,9.639L516.811,270L516.812,269.999z"/>
		<path fill="none" stroke="#ECF2FA" stroke-width="2" stroke-linecap="round" stroke-linejoin="round" stroke-miterlimit="10" d="
			M516.811,196.135l-42.69,21.506c-4.172,2.104-7.547,5.478-9.649,9.642L442.948,270l42.843-21.646
			c4.167-2.106,7.545-5.491,9.639-9.653l21.383-42.565L516.811,196.135z"/>
		<path fill="none" stroke="#ECF2FA" stroke-width="2" stroke-linecap="round" stroke-linejoin="round" stroke-miterlimit="10" d="
			M590.677,269.999l-21.506-42.69c-2.104-4.172-5.478-7.547-9.642-9.649l-42.716-21.524l21.646,42.843
			c2.106,4.167,5.491,7.545,9.653,9.639L590.676,270L590.677,269.999z"/>
		<path fill="none" stroke="#ECF2FA" stroke-width="2" stroke-linecap="round" stroke-linejoin="round" stroke-miterlimit="10" d="
			M590.676,196.135l-42.69,21.506c-4.172,2.104-7.547,5.478-9.649,9.642L516.812,270l42.843-21.646
			c4.167-2.106,7.545-5.491,9.639-9.653l21.383-42.565L590.676,196.135z"/>
		<path fill="none" stroke="#ECF2FA" stroke-width="2" stroke-linecap="round" stroke-linejoin="round" stroke-miterlimit="10" d="
			M664.541,269.999l-21.506-42.69c-2.104-4.172-5.478-7.547-9.642-9.649l-42.716-21.524l21.646,42.843
			c2.106,4.167,5.491,7.545,9.653,9.639L664.54,270L664.541,269.999z"/>
		<path fill="none" stroke="#ECF2FA" stroke-width="2" stroke-linecap="round" stroke-linejoin="round" stroke-miterlimit="10" d="
			M664.54,196.135l-42.69,21.506c-4.172,2.104-7.547,5.478-9.649,9.642L590.677,270l42.843-21.646
			c4.167-2.106,7.545-5.491,9.639-9.653l21.383-42.565L664.54,196.135z"/>
		<path fill="none" stroke="#ECF2FA" stroke-width="2" stroke-linecap="round" stroke-linejoin="round" stroke-miterlimit="10" d="
			M738.406,196.134l-21.506-42.69c-2.104-4.172-5.478-7.547-9.642-9.649l-42.716-21.524l21.646,42.843
			c2.106,4.167,5.491,7.545,9.653,9.639l42.565,21.383L738.406,196.134z"/>
		<path fill="none" stroke="#ECF2FA" stroke-width="2" stroke-linecap="round" stroke-linejoin="round" stroke-miterlimit="10" d="
			M738.405,122.271l-42.69,21.506c-4.172,2.104-7.547,5.478-9.649,9.642l-21.524,42.716l42.843-21.646
			c4.167-2.106,7.545-5.491,9.639-9.653l21.383-42.565L738.405,122.271z"/>
		<path fill="none" stroke="#ECF2FA" stroke-width="2" stroke-linecap="round" stroke-linejoin="round" stroke-miterlimit="10" d="
			M812.271,196.134l-21.506-42.69c-2.104-4.172-5.478-7.547-9.642-9.649l-42.716-21.524l21.646,42.843
			c2.106,4.167,5.491,7.545,9.653,9.639l42.565,21.383L812.271,196.134z"/>
		<path fill="none" stroke="#ECF2FA" stroke-width="2" stroke-linecap="round" stroke-linejoin="round" stroke-miterlimit="10" d="
			M812.269,122.271l-42.69,21.506c-4.172,2.104-7.547,5.478-9.649,9.642l-21.524,42.716l42.843-21.646
			c4.167-2.106,7.545-5.491,9.639-9.653l21.383-42.565L812.269,122.271z"/>
		<path fill="none" stroke="#ECF2FA" stroke-width="2" stroke-linecap="round" stroke-linejoin="round" stroke-miterlimit="10" d="
			M886.135,196.134l-21.506-42.69c-2.104-4.172-5.478-7.547-9.642-9.649l-42.716-21.524l21.646,42.843
			c2.106,4.167,5.491,7.545,9.653,9.639l42.565,21.383L886.135,196.134z"/>
		<path fill="none" stroke="#ECF2FA" stroke-width="2" stroke-linecap="round" stroke-linejoin="round" stroke-miterlimit="10" d="
			M886.134,122.271l-42.69,21.506c-4.172,2.104-7.547,5.478-9.649,9.642l-21.524,42.716l42.843-21.646
			c4.167-2.106,7.545-5.491,9.639-9.653l21.383-42.565L886.134,122.271z"/>
		<path fill="none" stroke="#ECF2FA" stroke-width="2" stroke-linecap="round" stroke-linejoin="round" stroke-miterlimit="10" d="
			M960,196.134l-21.506-42.69c-2.104-4.172-5.478-7.547-9.642-9.649l-42.716-21.524l21.646,42.843
			c2.106,4.167,5.491,7.545,9.653,9.639l42.565,21.383L960,196.134z"/>
		<path fill="none" stroke="#ECF2FA" stroke-width="2" stroke-linecap="round" stroke-linejoin="round" stroke-miterlimit="10" d="
			M959.998,122.271l-42.69,21.506c-4.172,2.104-7.547,5.478-9.649,9.642l-21.524,42.716l42.843-21.646
			c4.167-2.106,7.545-5.491,9.639-9.653L960,122.272L959.998,122.271z"/>
		<path fill="none" stroke="#ECF2FA" stroke-width="2" stroke-linecap="round" stroke-linejoin="round" stroke-miterlimit="10" d="
			M1033.864,196.134l-21.506-42.69c-2.104-4.172-5.478-7.547-9.642-9.649L960,122.271l21.646,42.843
			c2.106,4.167,5.491,7.545,9.653,9.639l42.565,21.383L1033.864,196.134z"/>
		<path fill="none" stroke="#ECF2FA" stroke-width="2" stroke-linecap="round" stroke-linejoin="round" stroke-miterlimit="10" d="
			M1033.863,122.271l-42.69,21.506c-4.172,2.104-7.547,5.478-9.649,9.642L960,196.135l42.843-21.646
			c4.167-2.106,7.545-5.491,9.639-9.653l21.383-42.565L1033.863,122.271z"/>
		<path fill="none" stroke="#ECF2FA" stroke-width="2" stroke-linecap="round" stroke-linejoin="round" stroke-miterlimit="10" d="
			M738.406,269.999l-21.506-42.69c-2.104-4.172-5.478-7.547-9.642-9.649l-42.716-21.524l21.646,42.843
			c2.106,4.167,5.491,7.545,9.653,9.639L738.405,270L738.406,269.999z"/>
		<path fill="none" stroke="#ECF2FA" stroke-width="2" stroke-linecap="round" stroke-linejoin="round" stroke-miterlimit="10" d="
			M738.405,196.135l-42.69,21.506c-4.172,2.104-7.547,5.478-9.649,9.642L664.541,270l42.843-21.646
			c4.167-2.106,7.545-5.491,9.639-9.653l21.383-42.565L738.405,196.135z"/>
		<path fill="none" stroke="#ECF2FA" stroke-width="2" stroke-linecap="round" stroke-linejoin="round" stroke-miterlimit="10" d="
			M812.271,269.999l-21.506-42.69c-2.104-4.172-5.478-7.547-9.642-9.649l-42.716-21.524l21.646,42.843
			c2.106,4.167,5.491,7.545,9.653,9.639L812.27,270L812.271,269.999z"/>
		<path fill="none" stroke="#ECF2FA" stroke-width="2" stroke-linecap="round" stroke-linejoin="round" stroke-miterlimit="10" d="
			M812.269,196.135l-42.69,21.506c-4.172,2.104-7.547,5.478-9.649,9.642L738.406,270l42.843-21.646
			c4.167-2.106,7.545-5.491,9.639-9.653l21.383-42.565L812.269,196.135z"/>
		<path fill="none" stroke="#ECF2FA" stroke-width="2" stroke-linecap="round" stroke-linejoin="round" stroke-miterlimit="10" d="
			M886.135,269.999l-21.506-42.69c-2.104-4.172-5.478-7.547-9.642-9.649l-42.716-21.524l21.646,42.843
			c2.106,4.167,5.491,7.545,9.653,9.639L886.134,270L886.135,269.999z"/>
		<path fill="none" stroke="#ECF2FA" stroke-width="2" stroke-linecap="round" stroke-linejoin="round" stroke-miterlimit="10" d="
			M886.134,196.135l-42.69,21.506c-4.172,2.104-7.547,5.478-9.649,9.642L812.271,270l42.843-21.646
			c4.167-2.106,7.545-5.491,9.639-9.653l21.383-42.565L886.134,196.135z"/>
		<path fill="none" stroke="#ECF2FA" stroke-width="2" stroke-linecap="round" stroke-linejoin="round" stroke-miterlimit="10" d="
			M960,269.999l-21.506-42.69c-2.104-4.172-5.478-7.547-9.642-9.649l-42.716-21.524l21.646,42.843
			c2.106,4.167,5.491,7.545,9.653,9.639L959.999,270L960,269.999z"/>
		<path fill="none" stroke="#ECF2FA" stroke-width="2" stroke-linecap="round" stroke-linejoin="round" stroke-miterlimit="10" d="
			M959.998,196.135l-42.69,21.506c-4.172,2.104-7.547,5.478-9.649,9.642L886.135,270l42.843-21.646
			c4.167-2.106,7.545-5.491,9.639-9.653L960,196.136L959.998,196.135z"/>
		<path fill="none" stroke="#ECF2FA" stroke-width="2" stroke-linecap="round" stroke-linejoin="round" stroke-miterlimit="10" d="
			M1033.864,269.999l-21.506-42.69c-2.104-4.172-5.478-7.547-9.642-9.649L960,196.135l21.646,42.843
			c2.106,4.167,5.491,7.545,9.653,9.639L1033.863,270L1033.864,269.999z"/>
		<path fill="none" stroke="#ECF2FA" stroke-width="2" stroke-linecap="round" stroke-linejoin="round" stroke-miterlimit="10" d="
			M1033.863,196.135l-42.69,21.506c-4.172,2.104-7.547,5.478-9.649,9.642L960,270l42.843-21.646
			c4.167-2.106,7.545-5.491,9.639-9.653l21.383-42.565L1033.863,196.135z"/>
		<path fill="none" stroke="#ECF2FA" stroke-width="2" stroke-linecap="round" stroke-linejoin="round" stroke-miterlimit="10" d="
			M-0.24,343.863l-21.506-42.69c-2.104-4.172-5.478-7.547-9.642-9.649L-74.104,270l21.646,42.843
			c2.106,4.167,5.491,7.545,9.653,9.639l42.565,21.383L-0.24,343.863z"/>
		<path fill="none" stroke="#ECF2FA" stroke-width="2" stroke-linecap="round" stroke-linejoin="round" stroke-miterlimit="10" d="
			M-0.241,270l-42.69,21.506c-4.172,2.104-7.547,5.478-9.649,9.642l-21.524,42.716l42.843-21.646
			c4.167-2.106,7.545-5.491,9.639-9.653l21.383-42.565L-0.241,270z"/>
		<path fill="none" stroke="#ECF2FA" stroke-width="2" stroke-linecap="round" stroke-linejoin="round" stroke-miterlimit="10" d="
			M73.625,343.863l-21.506-42.69c-2.104-4.172-5.478-7.547-9.642-9.649L-0.24,270l21.646,42.843
			c2.106,4.167,5.491,7.545,9.653,9.639l42.565,21.383L73.625,343.863z"/>
		<path fill="none" stroke="#ECF2FA" stroke-width="2" stroke-linecap="round" stroke-linejoin="round" stroke-miterlimit="10" d="
			M73.624,270l-42.69,21.506c-4.172,2.104-7.547,5.478-9.649,9.642L-0.24,343.865l42.843-21.646
			c4.167-2.106,7.545-5.491,9.639-9.653l21.383-42.565L73.624,270z"/>
		<path fill="none" stroke="#ECF2FA" stroke-width="2" stroke-linecap="round" stroke-linejoin="round" stroke-miterlimit="10" d="
			M147.49,343.863l-21.506-42.69c-2.104-4.172-5.478-7.547-9.642-9.649L73.625,270l21.646,42.843
			c2.106,4.167,5.491,7.545,9.653,9.639l42.565,21.383L147.49,343.863z"/>
		<path fill="none" stroke="#ECF2FA" stroke-width="2" stroke-linecap="round" stroke-linejoin="round" stroke-miterlimit="10" d="
			M147.488,270l-42.69,21.506c-4.172,2.104-7.547,5.478-9.649,9.642l-21.524,42.716l42.843-21.646
			c4.167-2.106,7.545-5.491,9.639-9.653l21.383-42.565L147.488,270z"/>
		<path fill="none" stroke="#ECF2FA" stroke-width="2" stroke-linecap="round" stroke-linejoin="round" stroke-miterlimit="10" d="
			M221.354,343.863l-21.506-42.69c-2.104-4.172-5.478-7.547-9.642-9.649L147.49,270l21.646,42.843
			c2.106,4.167,5.491,7.545,9.653,9.639l42.565,21.383L221.354,343.863z"/>
		<path fill="none" stroke="#ECF2FA" stroke-width="2" stroke-linecap="round" stroke-linejoin="round" stroke-miterlimit="10" d="
			M221.353,270l-42.69,21.506c-4.172,2.104-7.547,5.478-9.649,9.642l-21.524,42.716l42.843-21.646
			c4.167-2.106,7.545-5.491,9.639-9.653l21.383-42.565L221.353,270z"/>
		<path fill="none" stroke="#ECF2FA" stroke-width="2" stroke-linecap="round" stroke-linejoin="round" stroke-miterlimit="10" d="
			M295.219,343.863l-21.506-42.69c-2.104-4.172-5.478-7.547-9.642-9.649L221.354,270L243,312.843
			c2.106,4.167,5.491,7.545,9.653,9.639l42.565,21.383L295.219,343.863z"/>
		<path fill="none" stroke="#ECF2FA" stroke-width="2" stroke-linecap="round" stroke-linejoin="round" stroke-miterlimit="10" d="
			M295.217,270l-42.69,21.506c-4.172,2.104-7.547,5.478-9.649,9.642l-21.524,42.716l42.843-21.646
			c4.167-2.106,7.545-5.491,9.639-9.653l21.383-42.565L295.217,270z"/>
		<path fill="none" stroke="#ECF2FA" stroke-width="2" stroke-linecap="round" stroke-linejoin="round" stroke-miterlimit="10" d="
			M-0.24,417.728l-21.506-42.69c-2.104-4.172-5.478-7.547-9.642-9.649l-42.716-21.524l21.646,42.843
			c2.106,4.167,5.491,7.545,9.653,9.639l42.565,21.383L-0.24,417.728z"/>
		<path fill="none" stroke="#ECF2FA" stroke-width="2" stroke-linecap="round" stroke-linejoin="round" stroke-miterlimit="10" d="
			M-0.241,343.865l-42.69,21.506c-4.172,2.104-7.547,5.478-9.649,9.642l-21.524,42.716l42.843-21.646
			c4.167-2.106,7.545-5.491,9.639-9.653l21.383-42.565L-0.241,343.865z"/>
		<path fill="none" stroke="#ECF2FA" stroke-width="2" stroke-linecap="round" stroke-linejoin="round" stroke-miterlimit="10" d="
			M73.625,417.728l-21.506-42.69c-2.104-4.172-5.478-7.547-9.642-9.649L-0.24,343.865l21.646,42.843
			c2.106,4.167,5.491,7.545,9.653,9.639l42.565,21.383L73.625,417.728z"/>
		<path fill="none" stroke="#ECF2FA" stroke-width="2" stroke-linecap="round" stroke-linejoin="round" stroke-miterlimit="10" d="
			M73.624,343.865l-42.69,21.506c-4.172,2.104-7.547,5.478-9.649,9.642L-0.24,417.729l42.843-21.646
			c4.167-2.106,7.545-5.491,9.639-9.653l21.383-42.565L73.624,343.865z"/>
		<path fill="none" stroke="#ECF2FA" stroke-width="2" stroke-linecap="round" stroke-linejoin="round" stroke-miterlimit="10" d="
			M147.49,417.728l-21.506-42.69c-2.104-4.172-5.478-7.547-9.642-9.649l-42.716-21.524l21.646,42.843
			c2.106,4.167,5.491,7.545,9.653,9.639l42.565,21.383L147.49,417.728z"/>
		<path fill="none" stroke="#ECF2FA" stroke-width="2" stroke-linecap="round" stroke-linejoin="round" stroke-miterlimit="10" d="
			M147.488,343.865l-42.69,21.506c-4.172,2.104-7.547,5.478-9.649,9.642l-21.524,42.716l42.843-21.646
			c4.167-2.106,7.545-5.491,9.639-9.653l21.383-42.565L147.488,343.865z"/>
		<path fill="none" stroke="#ECF2FA" stroke-width="2" stroke-linecap="round" stroke-linejoin="round" stroke-miterlimit="10" d="
			M221.354,417.728l-21.506-42.69c-2.104-4.172-5.478-7.547-9.642-9.649l-42.716-21.524l21.646,42.843
			c2.106,4.167,5.491,7.545,9.653,9.639l42.565,21.383L221.354,417.728z"/>
		<path fill="none" stroke="#ECF2FA" stroke-width="2" stroke-linecap="round" stroke-linejoin="round" stroke-miterlimit="10" d="
			M221.353,343.865l-42.69,21.506c-4.172,2.104-7.547,5.478-9.649,9.642l-21.524,42.716l42.843-21.646
			c4.167-2.106,7.545-5.491,9.639-9.653l21.383-42.565L221.353,343.865z"/>
		<path fill="none" stroke="#ECF2FA" stroke-width="2" stroke-linecap="round" stroke-linejoin="round" stroke-miterlimit="10" d="
			M295.219,417.728l-21.506-42.69c-2.104-4.172-5.478-7.547-9.642-9.649l-42.716-21.524L243,386.707
			c2.106,4.167,5.491,7.545,9.653,9.639l42.565,21.383L295.219,417.728z"/>
		<path fill="none" stroke="#ECF2FA" stroke-width="2" stroke-linecap="round" stroke-linejoin="round" stroke-miterlimit="10" d="
			M295.217,343.865l-42.69,21.506c-4.172,2.104-7.547,5.478-9.649,9.642l-21.524,42.716l42.843-21.646
			c4.167-2.106,7.545-5.491,9.639-9.653l21.383-42.565L295.217,343.865z"/>
		<path fill="none" stroke="#ECF2FA" stroke-width="2" stroke-linecap="round" stroke-linejoin="round" stroke-miterlimit="10" d="
			M369.083,343.863l-21.506-42.69c-2.104-4.172-5.478-7.547-9.642-9.649L295.219,270l21.646,42.843
			c2.106,4.167,5.491,7.545,9.653,9.639l42.565,21.383L369.083,343.863z"/>
		<path fill="none" stroke="#ECF2FA" stroke-width="2" stroke-linecap="round" stroke-linejoin="round" stroke-miterlimit="10" d="
			M369.082,270l-42.69,21.506c-4.172,2.104-7.547,5.478-9.649,9.642l-21.524,42.716l42.843-21.646
			c4.167-2.106,7.545-5.491,9.639-9.653l21.383-42.565L369.082,270z"/>
		<path fill="none" stroke="#ECF2FA" stroke-width="2" stroke-linecap="round" stroke-linejoin="round" stroke-miterlimit="10" d="
			M442.948,343.863l-21.506-42.69c-2.104-4.172-5.478-7.547-9.642-9.649L369.083,270l21.646,42.843
			c2.106,4.167,5.491,7.545,9.653,9.639l42.565,21.383L442.948,343.863z"/>
		<path fill="none" stroke="#ECF2FA" stroke-width="2" stroke-linecap="round" stroke-linejoin="round" stroke-miterlimit="10" d="
			M442.947,270l-42.69,21.506c-4.172,2.104-7.547,5.478-9.649,9.642l-21.524,42.716l42.843-21.646
			c4.167-2.106,7.545-5.491,9.639-9.653l21.383-42.565L442.947,270z"/>
		<path fill="none" stroke="#ECF2FA" stroke-width="2" stroke-linecap="round" stroke-linejoin="round" stroke-miterlimit="10" d="
			M516.812,343.863l-21.506-42.69c-2.104-4.172-5.478-7.547-9.642-9.649L442.948,270l21.646,42.843
			c2.106,4.167,5.491,7.545,9.653,9.639l42.565,21.383L516.812,343.863z"/>
		<path fill="none" stroke="#ECF2FA" stroke-width="2" stroke-linecap="round" stroke-linejoin="round" stroke-miterlimit="10" d="
			M516.811,270l-42.69,21.506c-4.172,2.104-7.547,5.478-9.649,9.642l-21.524,42.716l42.843-21.646
			c4.167-2.106,7.545-5.491,9.639-9.653l21.383-42.565L516.811,270z"/>
		<path fill="none" stroke="#ECF2FA" stroke-width="2" stroke-linecap="round" stroke-linejoin="round" stroke-miterlimit="10" d="
			M590.677,343.863l-21.506-42.69c-2.104-4.172-5.478-7.547-9.642-9.649L516.812,270l21.646,42.843
			c2.106,4.167,5.491,7.545,9.653,9.639l42.565,21.383L590.677,343.863z"/>
		<path fill="none" stroke="#ECF2FA" stroke-width="2" stroke-linecap="round" stroke-linejoin="round" stroke-miterlimit="10" d="
			M590.676,270l-42.69,21.506c-4.172,2.104-7.547,5.478-9.649,9.642l-21.524,42.716l42.843-21.646
			c4.167-2.106,7.545-5.491,9.639-9.653l21.383-42.565L590.676,270z"/>
		<path fill="none" stroke="#ECF2FA" stroke-width="2" stroke-linecap="round" stroke-linejoin="round" stroke-miterlimit="10" d="
			M664.541,343.863l-21.506-42.69c-2.104-4.172-5.478-7.547-9.642-9.649L590.677,270l21.646,42.843
			c2.106,4.167,5.491,7.545,9.653,9.639l42.565,21.383L664.541,343.863z"/>
		<path fill="none" stroke="#ECF2FA" stroke-width="2" stroke-linecap="round" stroke-linejoin="round" stroke-miterlimit="10" d="
			M664.54,270l-42.69,21.506c-4.172,2.104-7.547,5.478-9.649,9.642l-21.524,42.716l42.843-21.646
			c4.167-2.106,7.545-5.491,9.639-9.653l21.383-42.565L664.54,270z"/>
		<path fill="none" stroke="#ECF2FA" stroke-width="2" stroke-linecap="round" stroke-linejoin="round" stroke-miterlimit="10" d="
			M369.083,417.728l-21.506-42.69c-2.104-4.172-5.478-7.547-9.642-9.649l-42.716-21.524l21.646,42.843
			c2.106,4.167,5.491,7.545,9.653,9.639l42.565,21.383L369.083,417.728z"/>
		<path fill="none" stroke="#ECF2FA" stroke-width="2" stroke-linecap="round" stroke-linejoin="round" stroke-miterlimit="10" d="
			M369.082,343.865l-42.69,21.506c-4.172,2.104-7.547,5.478-9.649,9.642l-21.524,42.716l42.843-21.646
			c4.167-2.106,7.545-5.491,9.639-9.653l21.383-42.565L369.082,343.865z"/>
		<path fill="none" stroke="#ECF2FA" stroke-width="2" stroke-linecap="round" stroke-linejoin="round" stroke-miterlimit="10" d="
			M442.948,417.728l-21.506-42.69c-2.104-4.172-5.478-7.547-9.642-9.649l-42.716-21.524l21.646,42.843
			c2.106,4.167,5.491,7.545,9.653,9.639l42.565,21.383L442.948,417.728z"/>
		<path fill="none" stroke="#ECF2FA" stroke-width="2" stroke-linecap="round" stroke-linejoin="round" stroke-miterlimit="10" d="
			M442.947,343.865l-42.69,21.506c-4.172,2.104-7.547,5.478-9.649,9.642l-21.524,42.716l42.843-21.646
			c4.167-2.106,7.545-5.491,9.639-9.653l21.383-42.565L442.947,343.865z"/>
		<path fill="none" stroke="#ECF2FA" stroke-width="2" stroke-linecap="round" stroke-linejoin="round" stroke-miterlimit="10" d="
			M516.812,417.728l-21.506-42.69c-2.104-4.172-5.478-7.547-9.642-9.649l-42.716-21.524l21.646,42.843
			c2.106,4.167,5.491,7.545,9.653,9.639l42.565,21.383L516.812,417.728z"/>
		<path fill="none" stroke="#ECF2FA" stroke-width="2" stroke-linecap="round" stroke-linejoin="round" stroke-miterlimit="10" d="
			M516.811,343.865l-42.69,21.506c-4.172,2.104-7.547,5.478-9.649,9.642l-21.524,42.716l42.843-21.646
			c4.167-2.106,7.545-5.491,9.639-9.653l21.383-42.565L516.811,343.865z"/>
		<path fill="none" stroke="#ECF2FA" stroke-width="2" stroke-linecap="round" stroke-linejoin="round" stroke-miterlimit="10" d="
			M590.677,417.728l-21.506-42.69c-2.104-4.172-5.478-7.547-9.642-9.649l-42.716-21.524l21.646,42.843
			c2.106,4.167,5.491,7.545,9.653,9.639l42.565,21.383L590.677,417.728z"/>
		<path fill="none" stroke="#ECF2FA" stroke-width="2" stroke-linecap="round" stroke-linejoin="round" stroke-miterlimit="10" d="
			M590.676,343.865l-42.69,21.506c-4.172,2.104-7.547,5.478-9.649,9.642l-21.524,42.716l42.843-21.646
			c4.167-2.106,7.545-5.491,9.639-9.653l21.383-42.565L590.676,343.865z"/>
		<path fill="none" stroke="#ECF2FA" stroke-width="2" stroke-linecap="round" stroke-linejoin="round" stroke-miterlimit="10" d="
			M664.541,417.728l-21.506-42.69c-2.104-4.172-5.478-7.547-9.642-9.649l-42.716-21.524l21.646,42.843
			c2.106,4.167,5.491,7.545,9.653,9.639l42.565,21.383L664.541,417.728z"/>
		<path fill="none" stroke="#ECF2FA" stroke-width="2" stroke-linecap="round" stroke-linejoin="round" stroke-miterlimit="10" d="
			M664.54,343.865l-42.69,21.506c-4.172,2.104-7.547,5.478-9.649,9.642l-21.524,42.716l42.843-21.646
			c4.167-2.106,7.545-5.491,9.639-9.653l21.383-42.565L664.54,343.865z"/>
		<path fill="none" stroke="#ECF2FA" stroke-width="2" stroke-linecap="round" stroke-linejoin="round" stroke-miterlimit="10" d="
			M738.406,343.863l-21.506-42.69c-2.104-4.172-5.478-7.547-9.642-9.649L664.541,270l21.646,42.843
			c2.106,4.167,5.491,7.545,9.653,9.639l42.565,21.383L738.406,343.863z"/>
		<path fill="none" stroke="#ECF2FA" stroke-width="2" stroke-linecap="round" stroke-linejoin="round" stroke-miterlimit="10" d="
			M738.405,270l-42.69,21.506c-4.172,2.104-7.547,5.478-9.649,9.642l-21.524,42.716l42.843-21.646
			c4.167-2.106,7.545-5.491,9.639-9.653l21.383-42.565L738.405,270z"/>
		<path fill="none" stroke="#ECF2FA" stroke-width="2" stroke-linecap="round" stroke-linejoin="round" stroke-miterlimit="10" d="
			M812.271,343.863l-21.506-42.69c-2.104-4.172-5.478-7.547-9.642-9.649L738.406,270l21.646,42.843
			c2.106,4.167,5.491,7.545,9.653,9.639l42.565,21.383L812.271,343.863z"/>
		<path fill="none" stroke="#ECF2FA" stroke-width="2" stroke-linecap="round" stroke-linejoin="round" stroke-miterlimit="10" d="
			M812.269,270l-42.69,21.506c-4.172,2.104-7.547,5.478-9.649,9.642l-21.524,42.716l42.843-21.646
			c4.167-2.106,7.545-5.491,9.639-9.653l21.383-42.565L812.269,270z"/>
		<path fill="none" stroke="#ECF2FA" stroke-width="2" stroke-linecap="round" stroke-linejoin="round" stroke-miterlimit="10" d="
			M886.135,343.863l-21.506-42.69c-2.104-4.172-5.478-7.547-9.642-9.649L812.271,270l21.646,42.843
			c2.106,4.167,5.491,7.545,9.653,9.639l42.565,21.383L886.135,343.863z"/>
		<path fill="none" stroke="#ECF2FA" stroke-width="2" stroke-linecap="round" stroke-linejoin="round" stroke-miterlimit="10" d="
			M886.134,270l-42.69,21.506c-4.172,2.104-7.547,5.478-9.649,9.642l-21.524,42.716l42.843-21.646
			c4.167-2.106,7.545-5.491,9.639-9.653l21.383-42.565L886.134,270z"/>
		<path fill="none" stroke="#ECF2FA" stroke-width="2" stroke-linecap="round" stroke-linejoin="round" stroke-miterlimit="10" d="
			M960,343.863l-21.506-42.69c-2.104-4.172-5.478-7.547-9.642-9.649L886.135,270l21.646,42.843c2.106,4.167,5.491,7.545,9.653,9.639
			l42.565,21.383L960,343.863z"/>
		<path fill="none" stroke="#ECF2FA" stroke-width="2" stroke-linecap="round" stroke-linejoin="round" stroke-miterlimit="10" d="
			M959.998,270l-42.69,21.506c-4.172,2.104-7.547,5.478-9.649,9.642l-21.524,42.716l42.843-21.646
			c4.167-2.106,7.545-5.491,9.639-9.653L960,270.001L959.998,270z"/>
		<path fill="none" stroke="#ECF2FA" stroke-width="2" stroke-linecap="round" stroke-linejoin="round" stroke-miterlimit="10" d="
			M1033.864,343.863l-21.506-42.69c-2.104-4.172-5.478-7.547-9.642-9.649L960,270l21.646,42.843
			c2.106,4.167,5.491,7.545,9.653,9.639l42.565,21.383L1033.864,343.863z"/>
		<path fill="none" stroke="#ECF2FA" stroke-width="2" stroke-linecap="round" stroke-linejoin="round" stroke-miterlimit="10" d="
			M1033.863,270l-42.69,21.506c-4.172,2.104-7.547,5.478-9.649,9.642L960,343.865l42.843-21.646
			c4.167-2.106,7.545-5.491,9.639-9.653l21.383-42.565L1033.863,270z"/>
		<path fill="none" stroke="#ECF2FA" stroke-width="2" stroke-linecap="round" stroke-linejoin="round" stroke-miterlimit="10" d="
			M738.406,417.728l-21.506-42.69c-2.104-4.172-5.478-7.547-9.642-9.649l-42.716-21.524l21.646,42.843
			c2.106,4.167,5.491,7.545,9.653,9.639l42.565,21.383L738.406,417.728z"/>
		<path fill="none" stroke="#ECF2FA" stroke-width="2" stroke-linecap="round" stroke-linejoin="round" stroke-miterlimit="10" d="
			M738.405,343.865l-42.69,21.506c-4.172,2.104-7.547,5.478-9.649,9.642l-21.524,42.716l42.843-21.646
			c4.167-2.106,7.545-5.491,9.639-9.653l21.383-42.565L738.405,343.865z"/>
		<path fill="none" stroke="#ECF2FA" stroke-width="2" stroke-linecap="round" stroke-linejoin="round" stroke-miterlimit="10" d="
			M812.271,417.728l-21.506-42.69c-2.104-4.172-5.478-7.547-9.642-9.649l-42.716-21.524l21.646,42.843
			c2.106,4.167,5.491,7.545,9.653,9.639l42.565,21.383L812.271,417.728z"/>
		<path fill="none" stroke="#ECF2FA" stroke-width="2" stroke-linecap="round" stroke-linejoin="round" stroke-miterlimit="10" d="
			M812.269,343.865l-42.69,21.506c-4.172,2.104-7.547,5.478-9.649,9.642l-21.524,42.716l42.843-21.646
			c4.167-2.106,7.545-5.491,9.639-9.653l21.383-42.565L812.269,343.865z"/>
		<path fill="none" stroke="#ECF2FA" stroke-width="2" stroke-linecap="round" stroke-linejoin="round" stroke-miterlimit="10" d="
			M886.135,417.728l-21.506-42.69c-2.104-4.172-5.478-7.547-9.642-9.649l-42.716-21.524l21.646,42.843
			c2.106,4.167,5.491,7.545,9.653,9.639l42.565,21.383L886.135,417.728z"/>
		<path fill="none" stroke="#ECF2FA" stroke-width="2" stroke-linecap="round" stroke-linejoin="round" stroke-miterlimit="10" d="
			M886.134,343.865l-42.69,21.506c-4.172,2.104-7.547,5.478-9.649,9.642l-21.524,42.716l42.843-21.646
			c4.167-2.106,7.545-5.491,9.639-9.653l21.383-42.565L886.134,343.865z"/>
		<path fill="none" stroke="#ECF2FA" stroke-width="2" stroke-linecap="round" stroke-linejoin="round" stroke-miterlimit="10" d="
			M960,417.728l-21.506-42.69c-2.104-4.172-5.478-7.547-9.642-9.649l-42.716-21.524l21.646,42.843
			c2.106,4.167,5.491,7.545,9.653,9.639l42.565,21.383L960,417.728z"/>
		<path fill="none" stroke="#ECF2FA" stroke-width="2" stroke-linecap="round" stroke-linejoin="round" stroke-miterlimit="10" d="
			M959.998,343.865l-42.69,21.506c-4.172,2.104-7.547,5.478-9.649,9.642l-21.524,42.716l42.843-21.646
			c4.167-2.106,7.545-5.491,9.639-9.653L960,343.865L959.998,343.865z"/>
		<path fill="none" stroke="#ECF2FA" stroke-width="2" stroke-linecap="round" stroke-linejoin="round" stroke-miterlimit="10" d="
			M1033.864,417.728l-21.506-42.69c-2.104-4.172-5.478-7.547-9.642-9.649L960,343.865l21.646,42.843
			c2.106,4.167,5.491,7.545,9.653,9.639l42.565,21.383L1033.864,417.728z"/>
		<path fill="none" stroke="#ECF2FA" stroke-width="2" stroke-linecap="round" stroke-linejoin="round" stroke-miterlimit="10" d="
			M1033.863,343.865l-42.69,21.506c-4.172,2.104-7.547,5.478-9.649,9.642L960,417.729l42.843-21.646
			c4.167-2.106,7.545-5.491,9.639-9.653l21.383-42.565L1033.863,343.865z"/>
		<path fill="none" stroke="#ECF2FA" stroke-width="2" stroke-linecap="round" stroke-linejoin="round" stroke-miterlimit="10" d="
			M-0.24,491.592l-21.506-42.69c-2.104-4.172-5.478-7.547-9.642-9.649l-42.716-21.524l21.646,42.843
			c2.106,4.167,5.491,7.545,9.653,9.639l42.565,21.383L-0.24,491.592z"/>
		<path fill="none" stroke="#ECF2FA" stroke-width="2" stroke-linecap="round" stroke-linejoin="round" stroke-miterlimit="10" d="
			M-0.241,417.729l-42.69,21.506c-4.172,2.104-7.547,5.478-9.649,9.642l-21.524,42.716l42.843-21.646
			c4.167-2.106,7.545-5.491,9.639-9.653L-0.24,417.73L-0.241,417.729z"/>
		<path fill="none" stroke="#ECF2FA" stroke-width="2" stroke-linecap="round" stroke-linejoin="round" stroke-miterlimit="10" d="
			M73.625,491.592l-21.506-42.69c-2.104-4.172-5.478-7.547-9.642-9.649L-0.24,417.729l21.646,42.843
			c2.106,4.167,5.491,7.545,9.653,9.639l42.565,21.383L73.625,491.592z"/>
		<path fill="none" stroke="#ECF2FA" stroke-width="2" stroke-linecap="round" stroke-linejoin="round" stroke-miterlimit="10" d="
			M73.624,417.729l-42.69,21.506c-4.172,2.104-7.547,5.478-9.649,9.642L-0.24,491.594l42.843-21.646
			c4.167-2.106,7.545-5.491,9.639-9.653l21.383-42.565L73.624,417.729z"/>
		<path fill="none" stroke="#ECF2FA" stroke-width="2" stroke-linecap="round" stroke-linejoin="round" stroke-miterlimit="10" d="
			M147.49,491.592l-21.506-42.69c-2.104-4.172-5.478-7.547-9.642-9.649l-42.716-21.524l21.646,42.843
			c2.106,4.167,5.491,7.545,9.653,9.639l42.565,21.383L147.49,491.592z"/>
		<path fill="none" stroke="#ECF2FA" stroke-width="2" stroke-linecap="round" stroke-linejoin="round" stroke-miterlimit="10" d="
			M147.488,417.729l-42.69,21.506c-4.172,2.104-7.547,5.478-9.649,9.642l-21.524,42.716l42.843-21.646
			c4.167-2.106,7.545-5.491,9.639-9.653l21.383-42.565L147.488,417.729z"/>
		<path fill="none" stroke="#ECF2FA" stroke-width="2" stroke-linecap="round" stroke-linejoin="round" stroke-miterlimit="10" d="
			M221.354,491.592l-21.506-42.69c-2.104-4.172-5.478-7.547-9.642-9.649l-42.716-21.524l21.646,42.843
			c2.106,4.167,5.491,7.545,9.653,9.639l42.565,21.383L221.354,491.592z"/>
		<path fill="none" stroke="#ECF2FA" stroke-width="2" stroke-linecap="round" stroke-linejoin="round" stroke-miterlimit="10" d="
			M221.353,417.729l-42.69,21.506c-4.172,2.104-7.547,5.478-9.649,9.642l-21.524,42.716l42.843-21.646
			c4.167-2.106,7.545-5.491,9.639-9.653l21.383-42.565L221.353,417.729z"/>
		<path fill="none" stroke="#ECF2FA" stroke-width="2" stroke-linecap="round" stroke-linejoin="round" stroke-miterlimit="10" d="
			M295.219,491.592l-21.506-42.69c-2.104-4.172-5.478-7.547-9.642-9.649l-42.716-21.524L243,460.572
			c2.106,4.167,5.491,7.545,9.653,9.639l42.565,21.383L295.219,491.592z"/>
		<path fill="none" stroke="#ECF2FA" stroke-width="2" stroke-linecap="round" stroke-linejoin="round" stroke-miterlimit="10" d="
			M295.217,417.729l-42.69,21.506c-4.172,2.104-7.547,5.478-9.649,9.642l-21.524,42.716l42.843-21.646
			c4.167-2.106,7.545-5.491,9.639-9.653l21.383-42.565L295.217,417.729z"/>
		<path fill="none" stroke="#ECF2FA" stroke-width="2" stroke-linecap="round" stroke-linejoin="round" stroke-miterlimit="10" d="
			M-0.24,565.457l-21.506-42.69c-2.104-4.172-5.478-7.547-9.642-9.649l-42.716-21.524l21.646,42.843
			c2.106,4.167,5.491,7.545,9.653,9.639l42.565,21.383L-0.24,565.457z"/>
		<path fill="none" stroke="#ECF2FA" stroke-width="2" stroke-linecap="round" stroke-linejoin="round" stroke-miterlimit="10" d="
			M-0.241,491.594l-42.69,21.506c-4.172,2.104-7.547,5.478-9.649,9.642l-21.524,42.716l42.843-21.646
			c4.167-2.106,7.545-5.491,9.639-9.653l21.383-42.565L-0.241,491.594z"/>
		<path fill="none" stroke="#ECF2FA" stroke-width="2" stroke-linecap="round" stroke-linejoin="round" stroke-miterlimit="10" d="
			M73.625,565.457l-21.506-42.69c-2.104-4.172-5.478-7.547-9.642-9.649L-0.24,491.594l21.646,42.843
			c2.106,4.167,5.491,7.545,9.653,9.639l42.565,21.383L73.625,565.457z"/>
		<path fill="none" stroke="#ECF2FA" stroke-width="2" stroke-linecap="round" stroke-linejoin="round" stroke-miterlimit="10" d="
			M73.624,491.594L30.934,513.1c-4.172,2.104-7.547,5.478-9.649,9.642L-0.24,565.458l42.843-21.646
			c4.167-2.106,7.545-5.491,9.639-9.653l21.383-42.565L73.624,491.594z"/>
		<path fill="none" stroke="#ECF2FA" stroke-width="2" stroke-linecap="round" stroke-linejoin="round" stroke-miterlimit="10" d="
			M147.49,565.457l-21.506-42.69c-2.104-4.172-5.478-7.547-9.642-9.649l-42.716-21.524l21.646,42.843
			c2.106,4.167,5.491,7.545,9.653,9.639l42.565,21.383L147.49,565.457z"/>
		<path fill="none" stroke="#ECF2FA" stroke-width="2" stroke-linecap="round" stroke-linejoin="round" stroke-miterlimit="10" d="
			M147.488,491.594l-42.69,21.506c-4.172,2.104-7.547,5.478-9.649,9.642l-21.524,42.716l42.843-21.646
			c4.167-2.106,7.545-5.491,9.639-9.653l21.383-42.565L147.488,491.594z"/>
		<path fill="none" stroke="#ECF2FA" stroke-width="2" stroke-linecap="round" stroke-linejoin="round" stroke-miterlimit="10" d="
			M221.354,565.457l-21.506-42.69c-2.104-4.172-5.478-7.547-9.642-9.649l-42.716-21.524l21.646,42.843
			c2.106,4.167,5.491,7.545,9.653,9.639l42.565,21.383L221.354,565.457z"/>
		<path fill="none" stroke="#ECF2FA" stroke-width="2" stroke-linecap="round" stroke-linejoin="round" stroke-miterlimit="10" d="
			M221.353,491.594l-42.69,21.506c-4.172,2.104-7.547,5.478-9.649,9.642l-21.524,42.716l42.843-21.646
			c4.167-2.106,7.545-5.491,9.639-9.653l21.383-42.565L221.353,491.594z"/>
		<path fill="none" stroke="#ECF2FA" stroke-width="2" stroke-linecap="round" stroke-linejoin="round" stroke-miterlimit="10" d="
			M295.219,565.457l-21.506-42.69c-2.104-4.172-5.478-7.547-9.642-9.649l-42.716-21.524L243,534.436
			c2.106,4.167,5.491,7.545,9.653,9.639l42.565,21.383L295.219,565.457z"/>
		<path fill="none" stroke="#ECF2FA" stroke-width="2" stroke-linecap="round" stroke-linejoin="round" stroke-miterlimit="10" d="
			M295.217,491.594l-42.69,21.506c-4.172,2.104-7.547,5.478-9.649,9.642l-21.524,42.716l42.843-21.646
			c4.167-2.106,7.545-5.491,9.639-9.653l21.383-42.565L295.217,491.594z"/>
		<path fill="none" stroke="#ECF2FA" stroke-width="2" stroke-linecap="round" stroke-linejoin="round" stroke-miterlimit="10" d="
			M369.083,491.592l-21.506-42.69c-2.104-4.172-5.478-7.547-9.642-9.649l-42.716-21.524l21.646,42.843
			c2.106,4.167,5.491,7.545,9.653,9.639l42.565,21.383L369.083,491.592z"/>
		<path fill="none" stroke="#ECF2FA" stroke-width="2" stroke-linecap="round" stroke-linejoin="round" stroke-miterlimit="10" d="
			M369.082,417.729l-42.69,21.506c-4.172,2.104-7.547,5.478-9.649,9.642l-21.524,42.716l42.843-21.646
			c4.167-2.106,7.545-5.491,9.639-9.653l21.383-42.565L369.082,417.729z"/>
		<path fill="none" stroke="#ECF2FA" stroke-width="2" stroke-linecap="round" stroke-linejoin="round" stroke-miterlimit="10" d="
			M442.948,491.592l-21.506-42.69c-2.104-4.172-5.478-7.547-9.642-9.649l-42.716-21.524l21.646,42.843
			c2.106,4.167,5.491,7.545,9.653,9.639l42.565,21.383L442.948,491.592z"/>
		<path fill="none" stroke="#ECF2FA" stroke-width="2" stroke-linecap="round" stroke-linejoin="round" stroke-miterlimit="10" d="
			M442.947,417.729l-42.69,21.506c-4.172,2.104-7.547,5.478-9.649,9.642l-21.524,42.716l42.843-21.646
			c4.167-2.106,7.545-5.491,9.639-9.653l21.383-42.565L442.947,417.729z"/>
		<path fill="none" stroke="#ECF2FA" stroke-width="2" stroke-linecap="round" stroke-linejoin="round" stroke-miterlimit="10" d="
			M516.812,491.592l-21.506-42.69c-2.104-4.172-5.478-7.547-9.642-9.649l-42.716-21.524l21.646,42.843
			c2.106,4.167,5.491,7.545,9.653,9.639l42.565,21.383L516.812,491.592z"/>
		<path fill="none" stroke="#ECF2FA" stroke-width="2" stroke-linecap="round" stroke-linejoin="round" stroke-miterlimit="10" d="
			M516.811,417.729l-42.69,21.506c-4.172,2.104-7.547,5.478-9.649,9.642l-21.524,42.716l42.843-21.646
			c4.167-2.106,7.545-5.491,9.639-9.653l21.383-42.565L516.811,417.729z"/>
		<path fill="none" stroke="#ECF2FA" stroke-width="2" stroke-linecap="round" stroke-linejoin="round" stroke-miterlimit="10" d="
			M590.677,491.592l-21.506-42.69c-2.104-4.172-5.478-7.547-9.642-9.649l-42.716-21.524l21.646,42.843
			c2.106,4.167,5.491,7.545,9.653,9.639l42.565,21.383L590.677,491.592z"/>
		<path fill="none" stroke="#ECF2FA" stroke-width="2" stroke-linecap="round" stroke-linejoin="round" stroke-miterlimit="10" d="
			M590.676,417.729l-42.69,21.506c-4.172,2.104-7.547,5.478-9.649,9.642l-21.524,42.716l42.843-21.646
			c4.167-2.106,7.545-5.491,9.639-9.653l21.383-42.565L590.676,417.729z"/>
		<path fill="none" stroke="#ECF2FA" stroke-width="2" stroke-linecap="round" stroke-linejoin="round" stroke-miterlimit="10" d="
			M664.541,491.592l-21.506-42.69c-2.104-4.172-5.478-7.547-9.642-9.649l-42.716-21.524l21.646,42.843
			c2.106,4.167,5.491,7.545,9.653,9.639l42.565,21.383L664.541,491.592z"/>
		<path fill="none" stroke="#ECF2FA" stroke-width="2" stroke-linecap="round" stroke-linejoin="round" stroke-miterlimit="10" d="
			M664.54,417.729l-42.69,21.506c-4.172,2.104-7.547,5.478-9.649,9.642l-21.524,42.716l42.843-21.646
			c4.167-2.106,7.545-5.491,9.639-9.653l21.383-42.565L664.54,417.729z"/>
		<path fill="none" stroke="#ECF2FA" stroke-width="2" stroke-linecap="round" stroke-linejoin="round" stroke-miterlimit="10" d="
			M369.083,565.457l-21.506-42.69c-2.104-4.172-5.478-7.547-9.642-9.649l-42.716-21.524l21.646,42.843
			c2.106,4.167,5.491,7.545,9.653,9.639l42.565,21.383L369.083,565.457z"/>
		<path fill="none" stroke="#ECF2FA" stroke-width="2" stroke-linecap="round" stroke-linejoin="round" stroke-miterlimit="10" d="
			M369.082,491.594l-42.69,21.506c-4.172,2.104-7.547,5.478-9.649,9.642l-21.524,42.716l42.843-21.646
			c4.167-2.106,7.545-5.491,9.639-9.653l21.383-42.565L369.082,491.594z"/>
		<path fill="none" stroke="#ECF2FA" stroke-width="2" stroke-linecap="round" stroke-linejoin="round" stroke-miterlimit="10" d="
			M442.948,565.457l-21.506-42.69c-2.104-4.172-5.478-7.547-9.642-9.649l-42.716-21.524l21.646,42.843
			c2.106,4.167,5.491,7.545,9.653,9.639l42.565,21.383L442.948,565.457z"/>
		<path fill="none" stroke="#ECF2FA" stroke-width="2" stroke-linecap="round" stroke-linejoin="round" stroke-miterlimit="10" d="
			M442.947,491.594l-42.69,21.506c-4.172,2.104-7.547,5.478-9.649,9.642l-21.524,42.716l42.843-21.646
			c4.167-2.106,7.545-5.491,9.639-9.653l21.383-42.565L442.947,491.594z"/>
		<path fill="none" stroke="#ECF2FA" stroke-width="2" stroke-linecap="round" stroke-linejoin="round" stroke-miterlimit="10" d="
			M516.812,565.457l-21.506-42.69c-2.104-4.172-5.478-7.547-9.642-9.649l-42.716-21.524l21.646,42.843
			c2.106,4.167,5.491,7.545,9.653,9.639l42.565,21.383L516.812,565.457z"/>
		<path fill="none" stroke="#ECF2FA" stroke-width="2" stroke-linecap="round" stroke-linejoin="round" stroke-miterlimit="10" d="
			M516.811,491.594l-42.69,21.506c-4.172,2.104-7.547,5.478-9.649,9.642l-21.524,42.716l42.843-21.646
			c4.167-2.106,7.545-5.491,9.639-9.653l21.383-42.565L516.811,491.594z"/>
		<path fill="none" stroke="#ECF2FA" stroke-width="2" stroke-linecap="round" stroke-linejoin="round" stroke-miterlimit="10" d="
			M590.677,565.457l-21.506-42.69c-2.104-4.172-5.478-7.547-9.642-9.649l-42.716-21.524l21.646,42.843
			c2.106,4.167,5.491,7.545,9.653,9.639l42.565,21.383L590.677,565.457z"/>
		<path fill="none" stroke="#ECF2FA" stroke-width="2" stroke-linecap="round" stroke-linejoin="round" stroke-miterlimit="10" d="
			M590.676,491.594l-42.69,21.506c-4.172,2.104-7.547,5.478-9.649,9.642l-21.524,42.716l42.843-21.646
			c4.167-2.106,7.545-5.491,9.639-9.653l21.383-42.565L590.676,491.594z"/>
		<path fill="none" stroke="#ECF2FA" stroke-width="2" stroke-linecap="round" stroke-linejoin="round" stroke-miterlimit="10" d="
			M664.541,565.457l-21.506-42.69c-2.104-4.172-5.478-7.547-9.642-9.649l-42.716-21.524l21.646,42.843
			c2.106,4.167,5.491,7.545,9.653,9.639l42.565,21.383L664.541,565.457z"/>
		<path fill="none" stroke="#ECF2FA" stroke-width="2" stroke-linecap="round" stroke-linejoin="round" stroke-miterlimit="10" d="
			M664.54,491.594L621.85,513.1c-4.172,2.104-7.547,5.478-9.649,9.642l-21.524,42.716l42.843-21.646
			c4.167-2.106,7.545-5.491,9.639-9.653l21.383-42.565L664.54,491.594z"/>
		<path fill="none" stroke="#ECF2FA" stroke-width="2" stroke-linecap="round" stroke-linejoin="round" stroke-miterlimit="10" d="
			M738.406,491.592l-21.506-42.69c-2.104-4.172-5.478-7.547-9.642-9.649l-42.716-21.524l21.646,42.843
			c2.106,4.167,5.491,7.545,9.653,9.639l42.565,21.383L738.406,491.592z"/>
		<path fill="none" stroke="#ECF2FA" stroke-width="2" stroke-linecap="round" stroke-linejoin="round" stroke-miterlimit="10" d="
			M738.405,417.729l-42.69,21.506c-4.172,2.104-7.547,5.478-9.649,9.642l-21.524,42.716l42.843-21.646
			c4.167-2.106,7.545-5.491,9.639-9.653l21.383-42.565L738.405,417.729z"/>
		<path fill="none" stroke="#ECF2FA" stroke-width="2" stroke-linecap="round" stroke-linejoin="round" stroke-miterlimit="10" d="
			M812.271,491.592l-21.506-42.69c-2.104-4.172-5.478-7.547-9.642-9.649l-42.716-21.524l21.646,42.843
			c2.106,4.167,5.491,7.545,9.653,9.639l42.565,21.383L812.271,491.592z"/>
		<path fill="none" stroke="#ECF2FA" stroke-width="2" stroke-linecap="round" stroke-linejoin="round" stroke-miterlimit="10" d="
			M812.269,417.729l-42.69,21.506c-4.172,2.104-7.547,5.478-9.649,9.642l-21.524,42.716l42.843-21.646
			c4.167-2.106,7.545-5.491,9.639-9.653l21.383-42.565L812.269,417.729z"/>
		<path fill="none" stroke="#ECF2FA" stroke-width="2" stroke-linecap="round" stroke-linejoin="round" stroke-miterlimit="10" d="
			M886.135,491.592l-21.506-42.69c-2.104-4.172-5.478-7.547-9.642-9.649l-42.716-21.524l21.646,42.843
			c2.106,4.167,5.491,7.545,9.653,9.639l42.565,21.383L886.135,491.592z"/>
		<path fill="none" stroke="#ECF2FA" stroke-width="2" stroke-linecap="round" stroke-linejoin="round" stroke-miterlimit="10" d="
			M886.134,417.729l-42.69,21.506c-4.172,2.104-7.547,5.478-9.649,9.642l-21.524,42.716l42.843-21.646
			c4.167-2.106,7.545-5.491,9.639-9.653l21.383-42.565L886.134,417.729z"/>
		<path fill="none" stroke="#ECF2FA" stroke-width="2" stroke-linecap="round" stroke-linejoin="round" stroke-miterlimit="10" d="
			M960,491.592l-21.506-42.69c-2.104-4.172-5.478-7.547-9.642-9.649l-42.716-21.524l21.646,42.843
			c2.106,4.167,5.491,7.545,9.653,9.639l42.565,21.383L960,491.592z"/>
		<path fill="none" stroke="#ECF2FA" stroke-width="2" stroke-linecap="round" stroke-linejoin="round" stroke-miterlimit="10" d="
			M959.998,417.729l-42.69,21.506c-4.172,2.104-7.547,5.478-9.649,9.642l-21.524,42.716l42.843-21.646
			c4.167-2.106,7.545-5.491,9.639-9.653L960,417.73L959.998,417.729z"/>
		<path fill="none" stroke="#ECF2FA" stroke-width="2" stroke-linecap="round" stroke-linejoin="round" stroke-miterlimit="10" d="
			M1033.864,491.592l-21.506-42.69c-2.104-4.172-5.478-7.547-9.642-9.649L960,417.729l21.646,42.843
			c2.106,4.167,5.491,7.545,9.653,9.639l42.565,21.383L1033.864,491.592z"/>
		<path fill="none" stroke="#ECF2FA" stroke-width="2" stroke-linecap="round" stroke-linejoin="round" stroke-miterlimit="10" d="
			M1033.863,417.729l-42.69,21.506c-4.172,2.104-7.547,5.478-9.649,9.642L960,491.594l42.843-21.646
			c4.167-2.106,7.545-5.491,9.639-9.653l21.383-42.565L1033.863,417.729z"/>
		<path fill="none" stroke="#ECF2FA" stroke-width="2" stroke-linecap="round" stroke-linejoin="round" stroke-miterlimit="10" d="
			M738.406,565.457l-21.506-42.69c-2.104-4.172-5.478-7.547-9.642-9.649l-42.716-21.524l21.646,42.843
			c2.106,4.167,5.491,7.545,9.653,9.639l42.565,21.383L738.406,565.457z"/>
		<path fill="none" stroke="#ECF2FA" stroke-width="2" stroke-linecap="round" stroke-linejoin="round" stroke-miterlimit="10" d="
			M738.405,491.594l-42.69,21.506c-4.172,2.104-7.547,5.478-9.649,9.642l-21.524,42.716l42.843-21.646
			c4.167-2.106,7.545-5.491,9.639-9.653l21.383-42.565L738.405,491.594z"/>
		<path fill="none" stroke="#ECF2FA" stroke-width="2" stroke-linecap="round" stroke-linejoin="round" stroke-miterlimit="10" d="
			M812.271,565.457l-21.506-42.69c-2.104-4.172-5.478-7.547-9.642-9.649l-42.716-21.524l21.646,42.843
			c2.106,4.167,5.491,7.545,9.653,9.639l42.565,21.383L812.271,565.457z"/>
		<path fill="none" stroke="#ECF2FA" stroke-width="2" stroke-linecap="round" stroke-linejoin="round" stroke-miterlimit="10" d="
			M812.269,491.594l-42.69,21.506c-4.172,2.104-7.547,5.478-9.649,9.642l-21.524,42.716l42.843-21.646
			c4.167-2.106,7.545-5.491,9.639-9.653l21.383-42.565L812.269,491.594z"/>
		<path fill="none" stroke="#ECF2FA" stroke-width="2" stroke-linecap="round" stroke-linejoin="round" stroke-miterlimit="10" d="
			M886.135,565.457l-21.506-42.69c-2.104-4.172-5.478-7.547-9.642-9.649l-42.716-21.524l21.646,42.843
			c2.106,4.167,5.491,7.545,9.653,9.639l42.565,21.383L886.135,565.457z"/>
		<path fill="none" stroke="#ECF2FA" stroke-width="2" stroke-linecap="round" stroke-linejoin="round" stroke-miterlimit="10" d="
			M886.134,491.594l-42.69,21.506c-4.172,2.104-7.547,5.478-9.649,9.642l-21.524,42.716l42.843-21.646
			c4.167-2.106,7.545-5.491,9.639-9.653l21.383-42.565L886.134,491.594z"/>
		<path fill="none" stroke="#ECF2FA" stroke-width="2" stroke-linecap="round" stroke-linejoin="round" stroke-miterlimit="10" d="
			M960,565.457l-21.506-42.69c-2.104-4.172-5.478-7.547-9.642-9.649l-42.716-21.524l21.646,42.843
			c2.106,4.167,5.491,7.545,9.653,9.639l42.565,21.383L960,565.457z"/>
		<path fill="none" stroke="#ECF2FA" stroke-width="2" stroke-linecap="round" stroke-linejoin="round" stroke-miterlimit="10" d="
			M959.998,491.594l-42.69,21.506c-4.172,2.104-7.547,5.478-9.649,9.642l-21.524,42.716l42.843-21.646
			c4.167-2.106,7.545-5.491,9.639-9.653L960,491.595L959.998,491.594z"/>
		<path fill="none" stroke="#ECF2FA" stroke-width="2" stroke-linecap="round" stroke-linejoin="round" stroke-miterlimit="10" d="
			M1033.864,565.457l-21.506-42.69c-2.104-4.172-5.478-7.547-9.642-9.649L960,491.594l21.646,42.843
			c2.106,4.167,5.491,7.545,9.653,9.639l42.565,21.383L1033.864,565.457z"/>
		<path fill="none" stroke="#ECF2FA" stroke-width="2" stroke-linecap="round" stroke-linejoin="round" stroke-miterlimit="10" d="
			M1033.863,491.594l-42.69,21.506c-4.172,2.104-7.547,5.478-9.649,9.642L960,565.458l42.843-21.646
			c4.167-2.106,7.545-5.491,9.639-9.653l21.383-42.565L1033.863,491.594z"/>
	</g>
</g>
<g>
	<text transform="matrix(1 0 0 1 318.4581 235.227)"><tspan x="0" y="0" fill="#241312" font-family="'Intro'" font-size="72px">Humans</tspan><tspan x="65.375" y="56.408" fill="#241312" font-family="'Intro'" font-size="72px">love</tspan><tspan x="-27.828" y="112.817" fill="#241312" font-family="'Intro'" font-size="72px">patterns</tspan></text>
</g>
</svg>
