<?xml version="1.0" encoding="utf-8"?>
<!-- Generator: Adobe Illustrator 23.0.3, SVG Export Plug-In . SVG Version: 6.00 Build 0)  -->
<svg version="1.1" id="Layer_1" xmlns="http://www.w3.org/2000/svg" xmlns:xlink="http://www.w3.org/1999/xlink" x="0px" y="0px"
	 viewBox="0 0 959.76 257.78" enable-background="new 0 0 959.76 257.78" xml:space="preserve">
<text transform="matrix(1 0 0 1 172.0937 191.832)" font-family="'GoogleSans-Regular'" font-size="20px">No predictions can be made without having data to mine through. </text>
<text transform="matrix(1 0 0 1 172.0937 214.6319)" font-family="'GoogleSans-Regular'" font-size="20px">In this instances, there is data from two sources and two perspectives, </text>
<text transform="matrix(1 0 0 1 172.0937 237.432)" font-family="'GoogleSans-Regular'" font-size="20px">the operators and the passengers.</text>
<g>
	<ellipse fill="#E13A2B" cx="234.627" cy="26.927" rx="62.534" ry="11.639"/>
	<path fill="#E13A2B" d="M172.093,102.196c0,6.428,27.997,11.639,62.534,11.639s62.534-5.211,62.534-11.639v28.452
		c0,6.428-27.997,11.639-62.534,11.639s-62.534-5.211-62.534-11.639L172.093,102.196L172.093,102.196z"/>
	<path fill="#E13A2B" d="M172.093,67.665c0,6.428,27.997,11.639,62.534,11.639s62.534-5.211,62.534-11.639v28.452
		c0,6.428-27.997,11.639-62.534,11.639s-62.534-5.211-62.534-11.639L172.093,67.665L172.093,67.665z"/>
	<path fill="#E13A2B" d="M172.093,33.077c0,6.428,27.997,11.639,62.534,11.639s62.534-5.211,62.534-11.639v28.452
		c0,6.428-27.997,11.639-62.534,11.639s-62.534-5.211-62.534-11.639L172.093,33.077L172.093,33.077z"/>
</g>
<g>
	<text transform="matrix(1 0 0 1 313.5768 98.7109)" fill="#241312" font-family="'Intro'" font-size="66.5682px">DATA is king</text>
</g>
</svg>
