<?xml version="1.0" standalone="no"?>
<!DOCTYPE svg PUBLIC "-//W3C//DTD SVG 20010904//EN"
 "http://www.w3.org/TR/2001/REC-SVG-20010904/DTD/svg10.dtd">
<svg version="1.0" xmlns="http://www.w3.org/2000/svg"
 width="260.000000pt" height="260.000000pt" viewBox="0 0 260.000000 260.000000"
 preserveAspectRatio="xMidYMid meet">
<metadata>
Created by potrace 1.11, written by Peter Selinger 2001-2013
</metadata>
<g transform="translate(0.000000,260.000000) scale(0.100000,-0.100000)"
fill="#000000" stroke="none">
<path d="M824 2139 c-94 -12 -190 -53 -254 -107 l-35 -30 -1 -154 0 -155 50
39 c28 21 71 45 96 52 59 18 183 14 238 -9 54 -22 115 -91 144 -164 23 -56 23
-59 26 -613 l3 -556 207 1 207 2 1 485 c0 526 3 556 55 666 59 125 167 197
299 200 41 1 92 -5 113 -12 96 -34 162 -123 193 -259 4 -16 8 -262 10 -545 2
-283 3 -520 4 -526 0 -7 67 -11 205 -11 l205 -1 1 41 c4 188 0 1081 -5 1112
-29 176 -81 290 -176 385 -117 117 -265 171 -453 165 -205 -6 -363 -87 -478
-246 l-43 -59 -15 28 c-37 72 -136 171 -210 211 -105 55 -252 79 -387 60z"/>
<path d="M9 2071 c-1 -33 0 -1555 0 -1597 l1 -31 208 1 207 1 0 825 0 825
-207 1 -208 1 -1 -26z"/>
</g>
</svg>
