<?xml version="1.0" encoding="utf-8"?>
<!-- Generator: Adobe Illustrator 23.0.3, SVG Export Plug-In . SVG Version: 6.00 Build 0)  -->
<svg version="1.1" id="Layer_1" xmlns="http://www.w3.org/2000/svg" xmlns:xlink="http://www.w3.org/1999/xlink" x="0px" y="0px"
	 viewBox="0 0 800 480" style="enable-background:new 0 0 800 480;" xml:space="preserve">
<style type="text/css">
	.st0{fill:#2A5094;}
	.st1{display:none;fill:#FFFFFF;enable-background:new    ;}
	.st2{font-family:'ProductSans-Regular';}
	.st3{font-size:78.2094px;}
	.st4{font-size:29.5566px;}
	.st5{fill:none;stroke:#FFFFFF;stroke-width:8;stroke-linecap:round;stroke-linejoin:round;stroke-miterlimit:10;}
</style>
<rect y="0.4" class="st0" width="800" height="479.1"/>
<text transform="matrix(1 0 0 1 304.478 344.7129)" class="st1 st2 st3">News</text>
<text transform="matrix(1 0 0 1 251.895 381.2168)" class="st1 st2 st4">Bringing the habit back</text>
<g>
	<path class="st5" d="M492.5,340.6h-185c-4.5,0-8.1-3.6-8.1-8.1v-185c0-4.5,3.6-8.1,8.1-8.1h185.1c4.5,0,8.1,3.6,8.1,8.1v185.1
		C500.6,337,497,340.6,492.5,340.6z"/>
	<path class="st5" d="M430.5,278.6h-61.1c-4.5,0-8.1-3.6-8.1-8.1v-61.1c0-4.5,3.6-8.1,8.1-8.1h61.1c4.5,0,8.1,3.6,8.1,8.1v61.1
		C438.6,275,435,278.6,430.5,278.6z"/>
	<line class="st5" x1="458.6" y1="240" x2="481.6" y2="240"/>
	<line class="st5" x1="458.6" y1="181.4" x2="474.9" y2="165.2"/>
	<line class="st5" x1="400" y1="181.4" x2="400" y2="158.4"/>
	<line class="st5" x1="346.2" y1="186.2" x2="329.9" y2="169.9"/>
	<line class="st5" x1="341.4" y1="240" x2="318.4" y2="240"/>
	<line class="st5" x1="346.2" y1="293.8" x2="329.9" y2="310.1"/>
	<line class="st5" x1="400" y1="298.6" x2="400" y2="321.6"/>
	<line class="st5" x1="453.8" y1="293.8" x2="470.1" y2="310.1"/>
</g>
</svg>
